<svg xmlns="http://www.w3.org/2000/svg" width="12" height="14" viewBox="0 0 12 14" fill="none">
  <g clip-path="url(#clip0_512_59796)">
    <mask id="mask0_512_59796" style="mask-type:luminance" maskUnits="userSpaceOnUse" x="0" y="0" width="12" height="14">
      <path d="M11.3332 0.444336H0.666504V13.7777H11.3332V0.444336Z" fill="white"/>
    </mask>
    <g mask="url(#mask0_512_59796)">
      <path fill-rule="evenodd" clip-rule="evenodd" d="M7.09257 5.19393C7.48101 4.99056 7.97527 4.69118 8.47014 4.281C8.57447 4.50851 8.58587 4.70705 8.53214 4.86736C8.49407 4.98033 8.42227 5.0786 8.32787 5.15678C8.22567 5.24127 8.09801 5.30278 7.95687 5.33603C7.68907 5.39936 7.37647 5.36238 7.09257 5.19393ZM7.15991 7.27775L7.67414 7.58962C6.62421 8.20749 6.33879 9.35476 5.99974 10.4722C5.66073 9.35476 5.37527 8.20749 4.32541 7.58962L4.83961 7.27775C4.88935 7.25802 4.93187 7.22229 4.96107 7.17562C4.99027 7.12896 5.00465 7.07375 5.00215 7.01795C4.95504 5.97145 5.22416 5.50865 5.58717 5.21807C5.71737 5.11398 5.85951 5.06172 5.99974 5.06172C6.13997 5.06172 6.28211 5.11398 6.41235 5.21807C6.77536 5.50865 7.04448 5.97145 6.99737 7.01795C6.99487 7.07375 7.00925 7.12896 7.03845 7.17562C7.06765 7.22229 7.11017 7.25802 7.15991 7.27775ZM5.99974 0.444336C6.59411 0.461091 7.18996 0.582247 7.70707 0.817935C8.06521 0.981361 8.39934 1.19723 8.70187 1.45536C8.83854 1.57189 8.95101 1.68447 9.07494 1.81407C9.40921 1.8262 9.89774 1.43629 10.1245 1.07145C9.73421 2.415 7.95314 4.00163 6.72008 4.60874L6.71885 4.60793C6.49756 4.43051 6.24867 4.3418 5.99974 4.3418C5.75081 4.3418 5.50196 4.43051 5.28067 4.60793L5.27944 4.60874C4.04634 4.00163 2.26531 2.415 1.875 1.07145C2.10175 1.43629 2.59026 1.8262 2.92452 1.81407C3.0485 1.68451 3.16101 1.57189 3.2976 1.45536C3.60016 1.19723 3.9343 0.981361 4.29239 0.817935C4.80956 0.582247 5.40541 0.461091 5.99974 0.444336ZM4.90691 5.19393C4.51851 4.99056 4.02421 4.69118 3.52939 4.281C3.42505 4.50851 3.41362 4.70705 3.46734 4.86736C3.50547 4.98033 3.57726 5.0786 3.67161 5.15678C3.77388 5.24127 3.90154 5.30278 4.04266 5.33603C4.31043 5.39936 4.62302 5.36238 4.90691 5.19393Z" fill="#616184"/>
      <path fill-rule="evenodd" clip-rule="evenodd" d="M9.01217 3.77855C9.28464 3.48988 9.52464 3.17037 9.7177 2.88525L9.8157 3.07899C10.1313 3.74197 10.2953 4.40228 10.2953 5.14539L10.2946 6.32459L10.3005 6.93585C10.3234 8.43659 10.6326 9.95492 11.3332 11.3445L9.8675 10.1035L8.83037 11.8705L7.7409 10.7936L5.99984 13.7603L4.2588 10.7937L3.16932 11.8706L2.13224 10.1035L0.666504 11.3445C1.36703 9.95499 1.67628 8.43665 1.69918 6.93592L1.7051 6.32463L1.70443 5.14543C1.70443 4.40228 1.86836 3.74197 2.18405 3.07903L2.28204 2.8853C2.47506 3.17041 2.71506 3.48988 2.98752 3.77859L2.90244 3.96415C2.73715 4.32455 2.68242 4.72752 2.81118 5.11077C2.89418 5.35761 3.04568 5.5693 3.24098 5.7309C3.43061 5.88783 3.65503 5.99361 3.89 6.04917C4.04306 6.08535 4.19899 6.10023 4.35391 6.09517C4.31776 6.31032 4.30198 6.53348 4.30096 6.76085L2.91836 7.59932L3.98528 8.22732C4.07055 8.27752 4.15173 8.33499 4.22798 8.39925C5.1076 9.22852 5.63645 11.6817 5.99988 12.88C6.36335 11.6817 6.89216 9.22852 7.77184 8.39925C7.84804 8.33499 7.92924 8.27752 8.0145 8.22732L9.08144 7.59932L7.69877 6.76085C7.69777 6.53348 7.68197 6.31032 7.64584 6.09517C7.80077 6.10023 7.9567 6.08535 8.10977 6.04917C8.3447 5.99361 8.56917 5.88783 8.75877 5.7309C8.95404 5.5693 9.10557 5.35761 9.1885 5.11077C9.31737 4.72752 9.26257 4.32459 9.0973 3.96415L9.01217 3.77855Z" fill="#616184"/>
    </g>
  </g>
  <defs>
    <clipPath id="clip0_512_59796">
      <rect width="10.6667" height="14" fill="white" transform="translate(0.666504)"/>
    </clipPath>
  </defs>
</svg>