<svg xmlns="http://www.w3.org/2000/svg" width="14" height="14" viewBox="0 0 14 14" fill="none">
  <g clip-path="url(#clip0_512_59806)">
    <path d="M13.1669 5.0748L12.3993 4.30713C11.8766 4.73296 10.9724 5.09113 10.4031 5.27663C10.3774 5.2848 10.3529 5.2953 10.3273 5.30463C10.1768 5.4528 10.0298 5.60913 9.89209 5.77363L11.0133 6.8948L13.1098 8.9913L13.1669 8.93413C14.2321 7.86779 14.2321 6.13996 13.1669 5.0748Z" fill="#616184"/>
    <path d="M13.1669 5.0748L12.3993 4.30713C11.8766 4.73296 10.9724 5.09113 10.4031 5.27663C10.3774 5.2848 10.3529 5.2953 10.3273 5.30463C10.1768 5.4528 10.0298 5.60913 9.89209 5.77363L11.0133 6.8948L13.1098 8.9913L13.1669 8.93413C14.2321 7.86779 14.2321 6.13996 13.1669 5.0748Z" fill="#616184"/>
    <path d="M2.97589 6.89359L5.15873 4.71076C5.2159 4.55442 5.27773 4.39692 5.34656 4.24292C6.00456 2.76826 7.48156 2.26776 8.87106 2.24326C9.05423 1.91892 9.40073 1.70309 9.79039 1.69842L8.92356 0.83159C7.8584 -0.233577 6.13056 -0.233577 5.06539 0.83159L5.00823 0.888757L0.879395 5.01759L2.97589 7.11409C2.91523 7.05342 2.91523 6.95426 2.97589 6.89359Z" fill="#616184"/>
    <path d="M2.97589 6.89359L5.15873 4.71076C5.2159 4.55442 5.27773 4.39692 5.34656 4.24292C6.00456 2.76826 7.48156 2.26776 8.87106 2.24326C9.05423 1.91892 9.40073 1.70309 9.79039 1.69842L8.92356 0.83159C7.8584 -0.233577 6.13056 -0.233577 5.06539 0.83159L5.00823 0.888757L0.879395 5.01759L2.97589 7.11409C2.91523 7.05342 2.91523 6.95426 2.97589 6.89359Z" fill="#616184"/>
    <path d="M10.5185 2.42666C10.5173 2.42549 10.5173 2.42549 10.5185 2.42666V2.42666Z" fill="white"/>
    <path d="M11.0131 6.89358C11.0738 6.95424 11.0738 7.05341 11.0131 7.11408L9.08231 9.04491L8.60748 9.51974L7.32181 10.8054L7.10481 11.0224C7.04415 11.0831 6.94498 11.0831 6.88431 11.0224L4.93015 9.06824L3.64565 7.78374L2.97598 7.11408L0.879479 5.01758L0.822313 5.07474C-0.242854 6.13991 -0.242854 7.86774 0.822313 8.93291L1.30765 9.41824L4.95348 13.0641L5.06548 13.1761C6.13065 14.2412 7.85848 14.2412 8.92365 13.1761L8.98081 13.1189L13.1096 8.99008L11.0131 6.89358Z" fill="#616184"/>
    <path d="M10.5175 2.42662C10.5175 2.42545 10.5175 2.42545 10.5175 2.42662C10.4417 2.25862 10.3075 2.11862 10.129 2.03695C10.1232 2.03462 10.1185 2.03112 10.1127 2.02879C10.0893 2.01829 10.0648 2.01012 10.0415 2.00195C10.0555 2.08595 10.0462 2.17579 10.01 2.25979C10.0007 2.28079 9.98899 2.30062 9.97615 2.32045C9.85599 2.51529 9.60982 2.59929 9.39399 2.50712C9.29132 2.46395 9.21315 2.38695 9.16415 2.29595C9.13265 2.34029 9.10465 2.38929 9.08249 2.44179C8.91215 2.84079 9.09649 3.30162 9.49549 3.47195C9.89449 3.64229 10.3553 3.45795 10.5257 3.05895C10.6155 2.84779 10.6062 2.62029 10.5175 2.42662Z" fill="#616184"/>
    <path d="M5.16703 4.68848C5.1647 4.69548 5.16003 4.70248 5.15886 4.71064C4.75403 6.85031 4.55453 7.15131 3.64453 7.78364L3.9677 8.10681C4.17886 7.89798 4.4822 7.53864 4.7692 6.98214C5.1227 6.30081 5.1717 5.27181 5.16703 4.68848Z" fill="#616184"/>
    <path d="M9.77162 5.62433C9.76579 5.62899 9.75879 5.63483 9.75412 5.63833C9.55112 5.80166 9.36096 6.00933 9.19529 6.25783C8.69596 7.00333 8.40896 8.11749 8.60729 9.51983L8.60612 9.52099C8.60612 9.52099 8.60612 9.52099 8.60612 9.52216L9.36679 8.77549C9.33412 8.66466 9.30379 8.54916 9.27579 8.42899C9.01329 7.31833 9.20812 6.58683 9.89062 5.77599C9.97579 5.67449 10.173 5.47266 10.3468 5.29883C10.3398 5.30116 10.334 5.30349 10.327 5.30583C10.1368 5.37583 9.95012 5.48316 9.77162 5.62433Z" fill="#616184"/>
    <path d="M9.19534 6.25781C8.696 7.00331 8.40784 8.11748 8.60617 9.52098L8.60734 9.51981C8.409 8.11748 8.696 7.00331 9.19534 6.25781Z" fill="white"/>
    <path d="M9.19534 6.25781C8.696 7.00331 8.40784 8.11748 8.60617 9.52098L8.60734 9.51981C8.409 8.11748 8.696 7.00331 9.19534 6.25781Z" fill="#616184"/>
    <path d="M12.9276 3.25022C12.4808 2.62022 11.1263 2.32855 11.1263 2.32855C11.1263 2.32855 10.942 1.81755 10.4648 1.65772C10.0331 1.51422 9.3833 1.77205 9.3833 1.77205L9.39263 1.78022C9.5163 1.72888 9.65047 1.69972 9.79047 1.69738C9.8243 1.69738 9.85697 1.69738 9.8908 1.70088C10.3575 1.73938 10.7296 2.07188 10.8393 2.50122C13.1143 3.06472 13.0875 3.74488 12.398 4.30605C12.3711 4.32822 12.342 4.35038 12.3128 4.37138L12.3245 4.38188C12.3256 4.38305 13.3558 3.85455 12.9276 3.25022Z" fill="#616184"/>
    <path d="M10.8405 2.50256C10.7297 2.07323 10.3587 1.74073 9.89202 1.70223C9.85819 1.6999 9.82436 1.69873 9.79169 1.69873C9.65169 1.6999 9.51753 1.73023 9.39386 1.78156C9.17452 1.87373 8.99019 2.0359 8.87352 2.24356C7.48286 2.26806 6.00702 2.7674 5.34902 4.24323C5.28369 4.39023 5.22536 4.53956 5.16936 4.6889C5.17402 5.27223 5.12386 6.3024 4.77269 6.98256C4.48569 7.53906 4.18236 7.8984 3.97119 8.10723L4.93252 9.06856L6.88669 11.0227C6.94736 11.0834 7.04653 11.0834 7.10719 11.0227L7.32419 10.8057L8.60869 9.52123C8.41036 8.11773 8.69852 7.00356 9.19786 6.25806C9.36469 6.0084 9.55486 5.80073 9.75786 5.63623C9.76369 5.63156 9.76836 5.62806 9.77419 5.6234C9.95152 5.4834 10.1394 5.3749 10.3295 5.30373C10.3365 5.3014 10.3424 5.29906 10.3494 5.29673C10.368 5.28973 10.3867 5.28273 10.4054 5.27573C10.9444 5.09956 11.7844 4.76823 12.3164 4.37156C12.3455 4.3494 12.3735 4.3284 12.4015 4.30623C13.0887 3.74506 13.1155 3.0649 10.8405 2.50256ZM10.5255 3.05906C10.3552 3.45806 9.89319 3.6424 9.49536 3.47206C9.09636 3.30173 8.91202 2.83973 9.08236 2.4419C9.10452 2.3894 9.13252 2.3404 9.16402 2.29606C9.21302 2.38706 9.29119 2.4629 9.39386 2.50723C9.61086 2.5994 9.85702 2.5154 9.97602 2.32056C9.97836 2.3159 9.98069 2.31123 9.98419 2.30656C9.99353 2.2914 10.0029 2.2774 10.0099 2.26106C10.046 2.17706 10.0554 2.08723 10.0414 2.00323C10.0659 2.0114 10.0892 2.01956 10.1125 2.03006C10.1184 2.0324 10.123 2.0359 10.1289 2.03823C10.3074 2.1199 10.4415 2.2599 10.5174 2.42673L10.5185 2.4279C10.5185 2.4279 10.5185 2.4279 10.5174 2.4279C10.5745 2.55506 10.5979 2.69623 10.5827 2.83856C10.5745 2.91206 10.557 2.98673 10.5255 3.05906Z" fill="white"/>
  </g>
  <defs>
    <clipPath id="clip0_512_59806">
      <rect width="14" height="14" fill="white"/>
    </clipPath>
  </defs>
</svg>