<svg xmlns="http://www.w3.org/2000/svg" width="16" height="17" viewBox="0 0 16 17" fill="none">
<path d="M8 1.93335C11.3137 1.93335 14 4.61964 14 7.93335V12.9333C14 14.222 12.9553 15.2667 11.6667 15.2667C10.8667 15.2667 10.1609 14.8642 9.74047 14.2507C9.3984 14.8572 8.747 15.2667 8 15.2667C7.253 15.2667 6.6016 14.8572 6.25819 14.2503C5.83913 14.8642 5.13323 15.2667 4.33333 15.2667C3.08763 15.2667 2.06991 14.2905 2.00345 13.0613L2 12.9333V7.93335C2 4.61964 4.68629 1.93335 8 1.93335ZM8 3.26668C5.47637 3.26668 3.4206 5.26987 3.33604 7.77288L3.33333 7.93335L3.33285 12.8974L3.33484 12.9893C3.36336 13.5167 3.80167 13.9333 4.33333 13.9333C4.63453 13.9333 4.91101 13.8005 5.09803 13.5765L5.15697 13.4985C5.71355 12.6832 6.93233 12.7344 7.4186 13.5936C7.53687 13.8026 7.75633 13.9333 8 13.9333C8.2434 13.9333 8.4622 13.8029 8.57913 13.5956C9.04613 12.7678 10.1932 12.6878 10.7757 13.4101L10.8404 13.497C11.0267 13.769 11.3317 13.9333 11.6667 13.9333C12.1865 13.9333 12.6136 13.5368 12.6621 13.0297L12.6667 12.9333V7.93335C12.6667 5.35602 10.5773 3.26668 8 3.26668ZM10.6667 9.26668C10.6667 10.7394 9.47273 11.9333 8 11.9333C6.57187 11.9333 5.40595 10.8107 5.3366 9.39975L5.33333 9.26668H6.66667C6.66667 10.0031 7.2636 10.6 8 10.6C8.7364 10.6 9.33333 10.0031 9.33333 9.26668H10.6667ZM8 5.26668C8.7364 5.26668 9.33333 5.86364 9.33333 6.60002C9.33333 7.33642 8.7364 7.93335 8 7.93335C7.2636 7.93335 6.66667 7.33642 6.66667 6.60002C6.66667 5.86364 7.2636 5.26668 8 5.26668Z" fill="#12122A"/>
</svg>