<svg width="16" height="16" viewBox="0 0 16 16" fill="none" xmlns="http://www.w3.org/2000/svg">
<path d="M1.3335 14.6666C1.3335 11.7211 3.72131 9.33326 6.66683 9.33326C9.61236 9.33326 12.0002 11.7211 12.0002 14.6666H10.6668C10.6668 12.4575 8.87596 10.6666 6.66683 10.6666C4.45769 10.6666 2.66683 12.4575 2.66683 14.6666H1.3335ZM6.66683 8.6666C4.45683 8.6666 2.66683 6.8766 2.66683 4.6666C2.66683 2.4566 4.45683 0.666595 6.66683 0.666595C8.87683 0.666595 10.6668 2.4566 10.6668 4.6666C10.6668 6.8766 8.87683 8.6666 6.66683 8.6666ZM6.66683 7.33326C8.14016 7.33326 9.3335 6.13993 9.3335 4.6666C9.3335 3.19326 8.14016 1.99993 6.66683 1.99993C5.1935 1.99993 4.00016 3.19326 4.00016 4.6666C4.00016 6.13993 5.1935 7.33326 6.66683 7.33326ZM12.1893 9.8018C14.0431 10.6373 15.3335 12.5013 15.3335 14.6666H14.0002C14.0002 13.0426 13.0324 11.6447 11.642 11.018L12.1893 9.8018ZM11.731 2.2754C13.0631 2.82462 14.0002 4.13567 14.0002 5.6666C14.0002 7.58006 12.5363 9.15006 10.6668 9.31833V7.97633C11.798 7.81473 12.6668 6.8426 12.6668 5.6666C12.6668 4.74616 12.1346 3.95062 11.3608 3.57083L11.731 2.2754Z" fill="#12122A"/>
</svg>
