<svg xmlns="http://www.w3.org/2000/svg" width="16" height="17" viewBox="0 0 16 17" fill="none">
<path d="M13.3334 8.60002C13.3334 5.6545 10.9456 3.26668 8.00004 3.26668C5.05452 3.26668 2.66671 5.6545 2.66671 8.60002C2.66671 11.5455 5.05452 13.9333 8.00004 13.9333C9.09457 13.9333 10.1121 13.6036 10.9588 13.0381L11.6984 14.1476C10.6402 14.8545 9.36824 15.2667 8.00004 15.2667C4.31814 15.2667 1.33337 12.2819 1.33337 8.60002C1.33337 4.91812 4.31814 1.93335 8.00004 1.93335C11.6819 1.93335 14.6667 4.91812 14.6667 8.60002V9.60002C14.6667 10.8887 13.622 11.9333 12.3334 11.9333C11.5306 11.9333 10.8224 11.5279 10.4026 10.9106C9.79617 11.541 8.94391 11.9333 8.00004 11.9333C6.15909 11.9333 4.66671 10.4409 4.66671 8.60002C4.66671 6.75907 6.15909 5.26668 8.00004 5.26668C8.75057 5.26668 9.44317 5.51474 10.0004 5.93335H11.3334V9.60002C11.3334 10.1523 11.7811 10.6 12.3334 10.6C12.8856 10.6 13.3334 10.1523 13.3334 9.60002V8.60002ZM8.00004 6.60002C6.89544 6.60002 6.00004 7.49542 6.00004 8.60002C6.00004 9.70462 6.89544 10.6 8.00004 10.6C9.10464 10.6 10 9.70462 10 8.60002C10 7.49542 9.10464 6.60002 8.00004 6.60002Z" fill="black"/>
</svg>