<svg xmlns="http://www.w3.org/2000/svg" width="16" height="17" viewBox="0 0 16 17" fill="none">
<path d="M4.86082 14.4828L1.33337 15.2667L2.11725 11.7392C1.617 10.8037 1.33337 9.73502 1.33337 8.60002C1.33337 4.91812 4.31814 1.93335 8.00004 1.93335C11.6819 1.93335 14.6667 4.91812 14.6667 8.60002C14.6667 12.2819 11.6819 15.2667 8.00004 15.2667C6.86504 15.2667 5.79631 14.9831 4.86082 14.4828ZM5.05387 13.074L5.48956 13.307C6.25503 13.7163 7.11037 13.9333 8.00004 13.9333C10.9456 13.9333 13.3334 11.5456 13.3334 8.60002C13.3334 5.6545 10.9456 3.26668 8.00004 3.26668C5.05452 3.26668 2.66671 5.6545 2.66671 8.60002C2.66671 9.48968 2.8837 10.345 3.29303 11.1105L3.52601 11.5462L3.08948 13.5106L5.05387 13.074ZM4.66671 8.60002H6.00004C6.00004 9.70462 6.89544 10.6 8.00004 10.6C9.10464 10.6 10 9.70462 10 8.60002H11.3334C11.3334 10.4409 9.84097 11.9333 8.00004 11.9333C6.15909 11.9333 4.66671 10.4409 4.66671 8.60002Z" fill="#12122A"/>
</svg>