<svg width="10" height="10" viewBox="0 0 10 10" fill="none" xmlns="http://www.w3.org/2000/svg">
<g clip-path="url(#clip0_620_8607)">
<path d="M2.9165 2.91667V1.25C2.9165 1.01989 3.10304 0.833336 3.33316 0.833336H8.74984C8.97996 0.833336 9.1665 1.01989 9.1665 1.25V6.66667C9.1665 6.89679 8.97996 7.08334 8.74984 7.08334H7.08325V8.74688C7.08325 8.97871 6.89617 9.16667 6.66346 9.16667H1.25295C1.02111 9.16667 0.833252 8.97963 0.833252 8.74688L0.834402 3.33645C0.834452 3.10461 1.0215 2.91667 1.25419 2.91667H2.9165ZM3.74983 2.91667H6.66354C6.89534 2.91667 7.08325 3.10372 7.08325 3.33645V6.25H8.33317V1.66667H3.74983V2.91667ZM1.66765 3.75L1.66667 8.33334H6.24992V3.75H1.66765Z" fill="black"/>
</g>
<defs>
<clipPath id="clip0_620_8607">
<rect width="10" height="10" fill="white"/>
</clipPath>
</defs>
</svg>
