<svg width="142" height="22" viewBox="0 0 142 22" fill="none" xmlns="http://www.w3.org/2000/svg">
<mask id="path-1-outside-1_753_1150" maskUnits="userSpaceOnUse" x="-2" y="-2" width="146" height="25" fill="black">
<rect fill="white" x="-2" y="-2" width="146" height="25"/>
<path d="M6.84 14.576C7.944 14.576 8.8 13.992 9.408 12.824C10.016 11.656 10.32 10.432 10.32 9.152C10.32 7.856 10.088 6.824 9.624 6.056C9.16 5.288 8.56 4.904 7.824 4.904H7.68L6.696 14.576H6.84ZM6.744 17H2.04L0.6 2.456H7.68C11.248 2.456 13.704 3.432 15.048 5.384C15.752 6.424 16.104 7.656 16.104 9.08C16.104 14.36 12.984 17 6.744 17ZM19.4017 15.824C18.2497 14.864 17.6737 13.344 17.6737 11.264C17.6737 9.184 18.2497 7.672 19.4017 6.728C20.5697 5.768 22.1217 5.288 24.0577 5.288C25.9938 5.288 27.5378 5.768 28.6898 6.728C29.8578 7.672 30.4418 9.184 30.4418 11.264C30.4418 13.344 29.8578 14.864 28.6898 15.824C27.5378 16.768 25.9938 17.24 24.0577 17.24C22.1217 17.24 20.5697 16.768 19.4017 15.824ZM23.0497 8.552C22.8577 9.096 22.7617 10 22.7617 11.264C22.7617 12.528 22.8577 13.44 23.0497 14C23.2417 14.544 23.5777 14.816 24.0577 14.816C24.5377 14.816 24.8737 14.544 25.0657 14C25.2578 13.44 25.3538 12.528 25.3538 11.264C25.3538 10 25.2578 9.096 25.0657 8.552C24.8737 7.992 24.5377 7.712 24.0577 7.712C23.5777 7.712 23.2417 7.992 23.0497 8.552ZM39.1065 21.44C38.3225 21.44 37.5545 21.32 36.8025 21.08C36.0505 20.856 35.4985 20.632 35.1465 20.408L34.6185 20.048L35.6745 17.888C36.3625 18.224 37.0025 18.392 37.5945 18.392C38.6825 18.392 39.4825 18.048 39.9945 17.36C40.5065 16.672 40.7625 15.88 40.7625 14.984C40.7625 14.824 40.7545 14.664 40.7385 14.504C39.9865 16.008 38.7545 16.76 37.0425 16.76C35.5385 16.76 34.3385 16.304 33.4425 15.392C32.5625 14.48 32.1225 13.032 32.1225 11.048C32.1225 9.944 32.2745 8.992 32.5785 8.192C32.8985 7.392 33.3145 6.792 33.8265 6.392C34.7705 5.656 35.8185 5.288 36.9705 5.288C37.7705 5.288 38.4505 5.48 39.0105 5.864C39.4745 6.2 39.8665 6.568 40.1865 6.968L40.0425 5.624H45.6105L45.2025 14.96C44.9945 19.28 42.9625 21.44 39.1065 21.44ZM38.5065 8.528C37.5625 8.528 37.0905 9.408 37.0905 11.168C37.0905 11.488 37.1145 11.8 37.1625 12.104C37.2265 12.408 37.3785 12.712 37.6185 13.016C37.8745 13.32 38.2345 13.472 38.6985 13.472C39.1625 13.472 39.5065 13.248 39.7305 12.8C39.9705 12.352 40.0905 11.808 40.0905 11.168C40.0905 9.408 39.5625 8.528 38.5065 8.528ZM53.6818 17.24C51.8738 17.24 50.3538 16.72 49.1218 15.68C47.9058 14.624 47.2978 13.08 47.2978 11.048C47.2978 9.768 47.6098 8.68 48.2338 7.784C49.3698 6.12 51.1298 5.288 53.5138 5.288C55.3378 5.288 56.7298 5.656 57.6898 6.392C58.6498 7.112 59.1298 8.112 59.1298 9.392C59.1298 10.384 58.7298 11.192 57.9298 11.816C57.1458 12.424 55.9938 12.728 54.4738 12.728C53.8498 12.728 53.2898 12.68 52.7938 12.584L52.5298 12.536C52.6098 13.112 52.8578 13.544 53.2738 13.832C53.7058 14.104 54.2178 14.24 54.8098 14.24C55.7858 14.24 56.6178 13.944 57.3058 13.352L58.7938 15.152C58.5378 15.456 58.2338 15.744 57.8818 16.016C57.5298 16.272 56.9698 16.544 56.2018 16.832C55.4338 17.104 54.5938 17.24 53.6818 17.24ZM55.6258 9.176C55.6258 8.856 55.4978 8.592 55.2418 8.384C55.0018 8.176 54.6658 8.072 54.2338 8.072C53.8018 8.072 53.3938 8.264 53.0098 8.648C52.6418 9.032 52.4578 9.488 52.4578 10.016C52.8098 10.176 53.2658 10.256 53.8258 10.256C54.4018 10.256 54.8418 10.16 55.1458 9.968C55.4658 9.76 55.6258 9.496 55.6258 9.176ZM68.3211 2.12C69.2491 2.12 70.2491 2.288 71.3211 2.624C72.4091 2.96 73.2971 3.384 73.9851 3.896L72.9771 6.032C72.2731 5.76 71.4971 5.624 70.6491 5.624C68.2811 5.624 67.0971 7 67.0971 9.752C67.0971 11.08 67.4171 12.12 68.0571 12.872C68.7131 13.608 69.4971 13.976 70.4091 13.976C71.3371 13.976 72.2011 13.784 73.0011 13.4L74.0811 15.464C72.4651 16.648 70.5371 17.24 68.2971 17.24C66.0571 17.24 64.2251 16.584 62.8011 15.272C61.3931 13.96 60.6891 12.08 60.6891 9.632C60.6891 7.168 61.3851 5.304 62.7771 4.04C64.1691 2.76 66.0171 2.12 68.3211 2.12ZM77.1264 15.824C75.9744 14.864 75.3984 13.344 75.3984 11.264C75.3984 9.184 75.9744 7.672 77.1264 6.728C78.2944 5.768 79.8464 5.288 81.7824 5.288C83.7184 5.288 85.2624 5.768 86.4144 6.728C87.5824 7.672 88.1664 9.184 88.1664 11.264C88.1664 13.344 87.5824 14.864 86.4144 15.824C85.2624 16.768 83.7184 17.24 81.7824 17.24C79.8464 17.24 78.2944 16.768 77.1264 15.824ZM80.7744 8.552C80.5824 9.096 80.4864 10 80.4864 11.264C80.4864 12.528 80.5824 13.44 80.7744 14C80.9664 14.544 81.3024 14.816 81.7824 14.816C82.2624 14.816 82.5984 14.544 82.7904 14C82.9824 13.44 83.0784 12.528 83.0784 11.264C83.0784 10 82.9824 9.096 82.7904 8.552C82.5984 7.992 82.2624 7.712 81.7824 7.712C81.3024 7.712 80.9664 7.992 80.7744 8.552ZM95.6792 5.96L96.0872 5.816L95.2712 17H90.7352L89.9672 5.816C90.8792 6.184 91.8472 6.368 92.8712 6.368C93.9112 6.368 94.8472 6.232 95.6792 5.96ZM93.0152 5.312C92.2152 5.312 91.5432 5.072 90.9992 4.592C90.4552 4.112 90.1832 3.488 90.1832 2.72C90.1832 1.936 90.4472 1.312 90.9752 0.847999C91.5192 0.368 92.1912 0.128 92.9912 0.128C93.8072 0.128 94.4872 0.368 95.0312 0.847999C95.5752 1.328 95.8472 1.952 95.8472 2.72C95.8472 3.488 95.5752 4.112 95.0312 4.592C94.4872 5.072 93.8152 5.312 93.0152 5.312ZM107.09 5.288C108.21 5.288 109.17 5.76 109.97 6.704C110.786 7.648 111.194 8.88 111.194 10.4C111.194 11.904 111.01 14.104 110.642 17H106.442L105.962 11.624C105.802 9.912 105.338 9.056 104.57 9.056C103.658 9.056 103.17 9.92 103.106 11.648L102.938 17H98.5215L98.0175 5.624H103.442L103.346 7.664C103.426 7.504 103.61 7.256 103.898 6.92C104.186 6.584 104.466 6.312 104.738 6.104C105.442 5.56 106.226 5.288 107.09 5.288ZM113.338 14.288C113.642 13.952 114.098 13.784 114.706 13.784C115.314 13.784 115.77 13.952 116.074 14.288C116.378 14.608 116.53 15.016 116.53 15.512C116.53 16.008 116.378 16.424 116.074 16.76C115.77 17.08 115.314 17.24 114.706 17.24C114.098 17.24 113.642 17.08 113.338 16.76C113.034 16.424 112.882 16.008 112.882 15.512C112.882 15.016 113.034 14.608 113.338 14.288ZM129.14 17L128.18 14.576H122.06L121.148 17H117.74L121.796 2.456H130.34L134.396 17H129.14ZM126.956 11.456L125.06 6.656L123.236 11.456H126.956ZM141.076 5.96L141.484 5.816L140.668 17H136.132L135.364 5.816C136.276 6.184 137.244 6.368 138.268 6.368C139.308 6.368 140.244 6.232 141.076 5.96ZM138.412 5.312C137.612 5.312 136.94 5.072 136.396 4.592C135.852 4.112 135.58 3.488 135.58 2.72C135.58 1.936 135.844 1.312 136.372 0.847999C136.916 0.368 137.588 0.128 138.388 0.128C139.204 0.128 139.884 0.368 140.428 0.847999C140.972 1.328 141.244 1.952 141.244 2.72C141.244 3.488 140.972 4.112 140.428 4.592C139.884 5.072 139.212 5.312 138.412 5.312Z"/>
</mask>
<path d="M6.84 14.576C7.944 14.576 8.8 13.992 9.408 12.824C10.016 11.656 10.32 10.432 10.32 9.152C10.32 7.856 10.088 6.824 9.624 6.056C9.16 5.288 8.56 4.904 7.824 4.904H7.68L6.696 14.576H6.84ZM6.744 17H2.04L0.6 2.456H7.68C11.248 2.456 13.704 3.432 15.048 5.384C15.752 6.424 16.104 7.656 16.104 9.08C16.104 14.36 12.984 17 6.744 17ZM19.4017 15.824C18.2497 14.864 17.6737 13.344 17.6737 11.264C17.6737 9.184 18.2497 7.672 19.4017 6.728C20.5697 5.768 22.1217 5.288 24.0577 5.288C25.9938 5.288 27.5378 5.768 28.6898 6.728C29.8578 7.672 30.4418 9.184 30.4418 11.264C30.4418 13.344 29.8578 14.864 28.6898 15.824C27.5378 16.768 25.9938 17.24 24.0577 17.24C22.1217 17.24 20.5697 16.768 19.4017 15.824ZM23.0497 8.552C22.8577 9.096 22.7617 10 22.7617 11.264C22.7617 12.528 22.8577 13.44 23.0497 14C23.2417 14.544 23.5777 14.816 24.0577 14.816C24.5377 14.816 24.8737 14.544 25.0657 14C25.2578 13.44 25.3538 12.528 25.3538 11.264C25.3538 10 25.2578 9.096 25.0657 8.552C24.8737 7.992 24.5377 7.712 24.0577 7.712C23.5777 7.712 23.2417 7.992 23.0497 8.552ZM39.1065 21.44C38.3225 21.44 37.5545 21.32 36.8025 21.08C36.0505 20.856 35.4985 20.632 35.1465 20.408L34.6185 20.048L35.6745 17.888C36.3625 18.224 37.0025 18.392 37.5945 18.392C38.6825 18.392 39.4825 18.048 39.9945 17.36C40.5065 16.672 40.7625 15.88 40.7625 14.984C40.7625 14.824 40.7545 14.664 40.7385 14.504C39.9865 16.008 38.7545 16.76 37.0425 16.76C35.5385 16.76 34.3385 16.304 33.4425 15.392C32.5625 14.48 32.1225 13.032 32.1225 11.048C32.1225 9.944 32.2745 8.992 32.5785 8.192C32.8985 7.392 33.3145 6.792 33.8265 6.392C34.7705 5.656 35.8185 5.288 36.9705 5.288C37.7705 5.288 38.4505 5.48 39.0105 5.864C39.4745 6.2 39.8665 6.568 40.1865 6.968L40.0425 5.624H45.6105L45.2025 14.96C44.9945 19.28 42.9625 21.44 39.1065 21.44ZM38.5065 8.528C37.5625 8.528 37.0905 9.408 37.0905 11.168C37.0905 11.488 37.1145 11.8 37.1625 12.104C37.2265 12.408 37.3785 12.712 37.6185 13.016C37.8745 13.32 38.2345 13.472 38.6985 13.472C39.1625 13.472 39.5065 13.248 39.7305 12.8C39.9705 12.352 40.0905 11.808 40.0905 11.168C40.0905 9.408 39.5625 8.528 38.5065 8.528ZM53.6818 17.24C51.8738 17.24 50.3538 16.72 49.1218 15.68C47.9058 14.624 47.2978 13.08 47.2978 11.048C47.2978 9.768 47.6098 8.68 48.2338 7.784C49.3698 6.12 51.1298 5.288 53.5138 5.288C55.3378 5.288 56.7298 5.656 57.6898 6.392C58.6498 7.112 59.1298 8.112 59.1298 9.392C59.1298 10.384 58.7298 11.192 57.9298 11.816C57.1458 12.424 55.9938 12.728 54.4738 12.728C53.8498 12.728 53.2898 12.68 52.7938 12.584L52.5298 12.536C52.6098 13.112 52.8578 13.544 53.2738 13.832C53.7058 14.104 54.2178 14.24 54.8098 14.24C55.7858 14.24 56.6178 13.944 57.3058 13.352L58.7938 15.152C58.5378 15.456 58.2338 15.744 57.8818 16.016C57.5298 16.272 56.9698 16.544 56.2018 16.832C55.4338 17.104 54.5938 17.24 53.6818 17.24ZM55.6258 9.176C55.6258 8.856 55.4978 8.592 55.2418 8.384C55.0018 8.176 54.6658 8.072 54.2338 8.072C53.8018 8.072 53.3938 8.264 53.0098 8.648C52.6418 9.032 52.4578 9.488 52.4578 10.016C52.8098 10.176 53.2658 10.256 53.8258 10.256C54.4018 10.256 54.8418 10.16 55.1458 9.968C55.4658 9.76 55.6258 9.496 55.6258 9.176ZM68.3211 2.12C69.2491 2.12 70.2491 2.288 71.3211 2.624C72.4091 2.96 73.2971 3.384 73.9851 3.896L72.9771 6.032C72.2731 5.76 71.4971 5.624 70.6491 5.624C68.2811 5.624 67.0971 7 67.0971 9.752C67.0971 11.08 67.4171 12.12 68.0571 12.872C68.7131 13.608 69.4971 13.976 70.4091 13.976C71.3371 13.976 72.2011 13.784 73.0011 13.4L74.0811 15.464C72.4651 16.648 70.5371 17.24 68.2971 17.24C66.0571 17.24 64.2251 16.584 62.8011 15.272C61.3931 13.96 60.6891 12.08 60.6891 9.632C60.6891 7.168 61.3851 5.304 62.7771 4.04C64.1691 2.76 66.0171 2.12 68.3211 2.12ZM77.1264 15.824C75.9744 14.864 75.3984 13.344 75.3984 11.264C75.3984 9.184 75.9744 7.672 77.1264 6.728C78.2944 5.768 79.8464 5.288 81.7824 5.288C83.7184 5.288 85.2624 5.768 86.4144 6.728C87.5824 7.672 88.1664 9.184 88.1664 11.264C88.1664 13.344 87.5824 14.864 86.4144 15.824C85.2624 16.768 83.7184 17.24 81.7824 17.24C79.8464 17.24 78.2944 16.768 77.1264 15.824ZM80.7744 8.552C80.5824 9.096 80.4864 10 80.4864 11.264C80.4864 12.528 80.5824 13.44 80.7744 14C80.9664 14.544 81.3024 14.816 81.7824 14.816C82.2624 14.816 82.5984 14.544 82.7904 14C82.9824 13.44 83.0784 12.528 83.0784 11.264C83.0784 10 82.9824 9.096 82.7904 8.552C82.5984 7.992 82.2624 7.712 81.7824 7.712C81.3024 7.712 80.9664 7.992 80.7744 8.552ZM95.6792 5.96L96.0872 5.816L95.2712 17H90.7352L89.9672 5.816C90.8792 6.184 91.8472 6.368 92.8712 6.368C93.9112 6.368 94.8472 6.232 95.6792 5.96ZM93.0152 5.312C92.2152 5.312 91.5432 5.072 90.9992 4.592C90.4552 4.112 90.1832 3.488 90.1832 2.72C90.1832 1.936 90.4472 1.312 90.9752 0.847999C91.5192 0.368 92.1912 0.128 92.9912 0.128C93.8072 0.128 94.4872 0.368 95.0312 0.847999C95.5752 1.328 95.8472 1.952 95.8472 2.72C95.8472 3.488 95.5752 4.112 95.0312 4.592C94.4872 5.072 93.8152 5.312 93.0152 5.312ZM107.09 5.288C108.21 5.288 109.17 5.76 109.97 6.704C110.786 7.648 111.194 8.88 111.194 10.4C111.194 11.904 111.01 14.104 110.642 17H106.442L105.962 11.624C105.802 9.912 105.338 9.056 104.57 9.056C103.658 9.056 103.17 9.92 103.106 11.648L102.938 17H98.5215L98.0175 5.624H103.442L103.346 7.664C103.426 7.504 103.61 7.256 103.898 6.92C104.186 6.584 104.466 6.312 104.738 6.104C105.442 5.56 106.226 5.288 107.09 5.288ZM113.338 14.288C113.642 13.952 114.098 13.784 114.706 13.784C115.314 13.784 115.77 13.952 116.074 14.288C116.378 14.608 116.53 15.016 116.53 15.512C116.53 16.008 116.378 16.424 116.074 16.76C115.77 17.08 115.314 17.24 114.706 17.24C114.098 17.24 113.642 17.08 113.338 16.76C113.034 16.424 112.882 16.008 112.882 15.512C112.882 15.016 113.034 14.608 113.338 14.288ZM129.14 17L128.18 14.576H122.06L121.148 17H117.74L121.796 2.456H130.34L134.396 17H129.14ZM126.956 11.456L125.06 6.656L123.236 11.456H126.956ZM141.076 5.96L141.484 5.816L140.668 17H136.132L135.364 5.816C136.276 6.184 137.244 6.368 138.268 6.368C139.308 6.368 140.244 6.232 141.076 5.96ZM138.412 5.312C137.612 5.312 136.94 5.072 136.396 4.592C135.852 4.112 135.58 3.488 135.58 2.72C135.58 1.936 135.844 1.312 136.372 0.847999C136.916 0.368 137.588 0.128 138.388 0.128C139.204 0.128 139.884 0.368 140.428 0.847999C140.972 1.328 141.244 1.952 141.244 2.72C141.244 3.488 140.972 4.112 140.428 4.592C139.884 5.072 139.212 5.312 138.412 5.312Z" fill="white"/>
<path d="M9.408 12.824L10.7385 13.5166V13.5166L9.408 12.824ZM9.624 6.056L10.9079 5.28033L10.9079 5.28032L9.624 6.056ZM7.68 4.904V3.404H6.32486L6.1877 4.75218L7.68 4.904ZM6.696 14.576L5.2037 14.4242L5.03565 16.076H6.696V14.576ZM2.04 17L0.547299 17.1478L0.681181 18.5H2.04V17ZM0.6 2.456V0.956H-1.05585L-0.892701 2.60379L0.6 2.456ZM15.048 5.384L16.2902 4.54312L16.2835 4.53335L15.048 5.384ZM6.84 16.076C8.62249 16.076 9.93231 15.0654 10.7385 13.5166L8.07747 12.1314C7.66769 12.9186 7.26551 13.076 6.84 13.076V16.076ZM10.7385 13.5166C11.4545 12.1411 11.82 10.6802 11.82 9.152H8.82C8.82 10.1838 8.57745 11.1709 8.07747 12.1314L10.7385 13.5166ZM11.82 9.152C11.82 7.69714 11.5626 6.36408 10.9079 5.28033L8.34013 6.83167C8.61336 7.28392 8.82 8.01485 8.82 9.152H11.82ZM10.9079 5.28032C10.2416 4.17747 9.20669 3.404 7.824 3.404V6.404C7.91331 6.404 8.07843 6.39853 8.34013 6.83167L10.9079 5.28032ZM7.824 3.404H7.68V6.404H7.824V3.404ZM6.1877 4.75218L5.2037 14.4242L8.1883 14.7278L9.1723 5.05582L6.1877 4.75218ZM6.696 16.076H6.84V13.076H6.696V16.076ZM6.744 15.5H2.04V18.5H6.744V15.5ZM3.5327 16.8522L2.0927 2.30821L-0.892701 2.60379L0.547299 17.1478L3.5327 16.8522ZM0.6 3.956H7.68V0.956H0.6V3.956ZM7.68 3.956C11.0167 3.956 12.87 4.86569 13.8125 6.23465L16.2835 4.53335C14.538 1.99831 11.4793 0.956 7.68 0.956V3.956ZM13.8058 6.22485C14.32 6.98435 14.604 7.91425 14.604 9.08H17.604C17.604 7.39775 17.184 5.86365 16.2902 4.54315L13.8058 6.22485ZM14.604 9.08C14.604 11.417 13.9253 12.9186 12.7951 13.8749C11.6168 14.8719 9.68829 15.5 6.744 15.5V18.5C10.0397 18.5 12.7912 17.8081 14.7329 16.1651C16.7227 14.4814 17.604 12.023 17.604 9.08H14.604ZM19.4017 15.824L18.4415 16.9763L18.4501 16.9835L18.4589 16.9906L19.4017 15.824ZM19.4017 6.728L20.3525 7.88822L20.3542 7.88681L19.4017 6.728ZM28.6898 6.728L27.7295 7.88033L27.7381 7.88754L27.7469 7.89461L28.6898 6.728ZM28.6898 15.824L29.6405 16.9842L29.6422 16.9828L28.6898 15.824ZM23.0497 8.552L24.4643 9.05125L24.4687 9.03849L23.0497 8.552ZM23.0497 14L21.6308 14.4865L21.6353 14.4992L23.0497 14ZM25.0658 14L26.4803 14.4993L26.4847 14.4865L25.0658 14ZM25.0658 8.552L23.6468 9.03851L23.6513 9.05123L25.0658 8.552ZM20.362 14.6717C19.6701 14.0951 19.1737 13.0796 19.1737 11.264H16.1737C16.1737 13.6084 16.8294 15.6329 18.4415 16.9763L20.362 14.6717ZM19.1737 11.264C19.1737 9.44641 19.6708 8.44683 20.3525 7.88822L18.451 5.56778C16.8287 6.89717 16.1737 8.92159 16.1737 11.264H19.1737ZM20.3542 7.88681C21.186 7.20314 22.3699 6.788 24.0578 6.788V3.788C21.8736 3.788 19.9535 4.33286 18.4493 5.56919L20.3542 7.88681ZM24.0578 6.788C25.7468 6.788 26.9174 7.20356 27.7295 7.88033L29.65 5.57567C28.1581 4.33243 26.2407 3.788 24.0578 3.788V6.788ZM27.7469 7.89461C28.4407 8.45537 28.9417 9.45296 28.9417 11.264H31.9417C31.9417 8.91504 31.2748 6.88862 29.6326 5.56139L27.7469 7.89461ZM28.9417 11.264C28.9417 13.0731 28.4413 14.0865 27.7373 14.6652L29.6422 16.9828C31.2742 15.6415 31.9417 13.6149 31.9417 11.264H28.9417ZM27.739 14.6638C26.9266 15.3295 25.7524 15.74 24.0578 15.74V18.74C26.2351 18.74 28.1489 18.2065 29.6405 16.9842L27.739 14.6638ZM24.0578 15.74C22.3643 15.74 21.1768 15.3299 20.3446 14.6574L18.4589 16.9906C19.9627 18.2061 21.8792 18.74 24.0578 18.74V15.74ZM21.6353 8.05277C21.3516 8.85645 21.2617 9.98355 21.2617 11.264H24.2617C24.2617 10.0164 24.3639 9.33554 24.4642 9.05123L21.6353 8.05277ZM21.2617 11.264C21.2617 12.5493 21.3527 13.6753 21.6308 14.4865L24.4687 13.5135C24.3628 13.2047 24.2617 12.5067 24.2617 11.264H21.2617ZM21.6353 14.4992C21.7935 14.9477 22.0578 15.4183 22.502 15.7779C22.9667 16.1541 23.5145 16.316 24.0578 16.316V13.316C24.0804 13.316 24.1315 13.3194 24.1991 13.342C24.2686 13.3652 24.3345 13.4016 24.3895 13.4461C24.4977 13.5337 24.498 13.5963 24.4642 13.5008L21.6353 14.4992ZM24.0578 16.316C24.601 16.316 25.1488 16.1541 25.6135 15.7779C26.0577 15.4183 26.322 14.9477 26.4802 14.4992L23.6513 13.5008C23.6175 13.5963 23.6178 13.5337 23.726 13.4461C23.781 13.4016 23.8469 13.3652 23.9164 13.342C23.984 13.3194 24.0351 13.316 24.0578 13.316V16.316ZM26.4847 14.4865C26.7628 13.6753 26.8538 12.5493 26.8538 11.264H23.8538C23.8538 12.5067 23.7527 13.2047 23.6468 13.5135L26.4847 14.4865ZM26.8538 11.264C26.8538 9.98355 26.7639 8.85645 26.4802 8.05277L23.6513 9.05123C23.7516 9.33554 23.8538 10.0164 23.8538 11.264H26.8538ZM26.4847 8.06551C26.33 7.61448 26.071 7.1371 25.63 6.76967C25.1656 6.38265 24.612 6.212 24.0578 6.212V9.212C24.0306 9.212 23.9752 9.20776 23.9039 9.1833C23.8307 9.15819 23.7638 9.11956 23.7095 9.07433C23.6045 8.98689 23.6095 8.92952 23.6468 9.03849L26.4847 8.06551ZM24.0578 6.212C23.5035 6.212 22.9499 6.38265 22.4855 6.76967C22.0445 7.1371 21.7855 7.61448 21.6308 8.06551L24.4687 9.03849C24.506 8.92952 24.511 8.98689 24.406 9.07433C24.3517 9.11956 24.2848 9.15819 24.2116 9.1833C24.1403 9.20776 24.0849 9.212 24.0578 9.212V6.212ZM36.8025 21.08L37.2586 19.651L37.2447 19.6466L37.2307 19.6424L36.8025 21.08ZM35.1465 20.408L34.3015 21.6473L34.3211 21.6607L34.3412 21.6735L35.1465 20.408ZM34.6185 20.048L33.2709 19.3892L32.7006 20.5558L33.7735 21.2873L34.6185 20.048ZM35.6745 17.888L36.3328 16.5401L34.9855 15.8822L34.3269 17.2292L35.6745 17.888ZM40.7385 14.504L42.2311 14.3547L41.7152 9.19646L39.3969 13.8332L40.7385 14.504ZM33.4425 15.392L32.363 16.4336L32.3725 16.4432L33.4425 15.392ZM32.5785 8.192L31.1858 7.63491L31.1809 7.647L31.1763 7.65917L32.5785 8.192ZM33.8265 6.392L32.9042 5.20905L32.903 5.20996L33.8265 6.392ZM39.0105 5.864L39.8903 4.64909L39.8747 4.63779L39.8588 4.62691L39.0105 5.864ZM40.1865 6.968L39.0152 7.90504L42.2254 11.9178L41.678 6.8082L40.1865 6.968ZM40.0425 5.624V4.124H38.3732L38.551 5.7838L40.0425 5.624ZM45.6105 5.624L47.1091 5.68949L47.1775 4.124H45.6105V5.624ZM45.2025 14.96L46.7008 15.0321L46.7011 15.0255L45.2025 14.96ZM37.1625 12.104L35.6809 12.3379L35.6868 12.3757L35.6947 12.413L37.1625 12.104ZM37.6185 13.016L36.4412 13.9455L36.4559 13.9641L36.4711 13.9822L37.6185 13.016ZM39.7305 12.8L38.4083 12.0917L38.3983 12.1103L38.3889 12.1292L39.7305 12.8ZM39.1065 19.94C38.4783 19.94 37.8641 19.8443 37.2586 19.651L36.3464 22.509C37.2449 22.7957 38.1667 22.94 39.1065 22.94V19.94ZM37.2307 19.6424C36.5167 19.4297 36.1252 19.2528 35.9518 19.1425L34.3412 21.6735C34.8718 22.0112 35.5843 22.2823 36.3743 22.5176L37.2307 19.6424ZM35.9915 19.1687L35.4635 18.8087L33.7735 21.2873L34.3015 21.6473L35.9915 19.1687ZM35.9661 20.7068L37.0221 18.5468L34.3269 17.2292L33.2709 19.3892L35.9661 20.7068ZM35.0162 19.2359C35.8512 19.6436 36.7176 19.892 37.5945 19.892V16.892C37.2874 16.892 36.8738 16.8044 36.3328 16.5401L35.0162 19.2359ZM37.5945 19.892C39.0158 19.892 40.3282 19.4242 41.1978 18.2555L38.7911 16.4645C38.6368 16.6718 38.3492 16.892 37.5945 16.892V19.892ZM41.1978 18.2555C41.9115 17.2966 42.2625 16.1872 42.2625 14.984H39.2625C39.2625 15.5728 39.1015 16.0474 38.7911 16.4645L41.1978 18.2555ZM42.2625 14.984C42.2625 14.7739 42.252 14.5641 42.2311 14.3547L39.2459 14.6533C39.257 14.7639 39.2625 14.8741 39.2625 14.984H42.2625ZM39.3969 13.8332C39.1256 14.3757 38.8074 14.7091 38.469 14.9157C38.129 15.1232 37.6746 15.26 37.0425 15.26V18.26C38.1224 18.26 39.14 18.0208 40.032 17.4763C40.9256 16.9309 41.5994 16.1362 42.0801 15.1748L39.3969 13.8332ZM37.0425 15.26C35.8643 15.26 35.0769 14.9153 34.5125 14.3408L32.3725 16.4432C33.6001 17.6927 35.2127 18.26 37.0425 18.26V15.26ZM34.5219 14.3504C34.0299 13.8405 33.6225 12.8557 33.6225 11.048H30.6225C30.6225 13.2083 31.0951 15.1195 32.3631 16.4336L34.5219 14.3504ZM33.6225 11.048C33.6225 10.0758 33.7571 9.31324 33.9807 8.72483L31.1763 7.65917C30.7919 8.67076 30.6225 9.81218 30.6225 11.048H33.6225ZM33.9712 8.74909C34.2239 8.1174 34.5042 7.76601 34.75 7.57404L32.903 5.20996C32.1248 5.81799 31.5731 6.6666 31.1858 7.63491L33.9712 8.74909ZM34.7488 7.57495C35.4404 7.03577 36.1665 6.788 36.9705 6.788V3.788C35.4705 3.788 34.1006 4.27623 32.9042 5.20905L34.7488 7.57495ZM36.9705 6.788C37.5229 6.788 37.8939 6.91713 38.1622 7.10109L39.8588 4.62691C39.0071 4.04287 38.0181 3.788 36.9705 3.788V6.788ZM38.1307 7.07891C38.4982 7.34503 38.7887 7.62195 39.0152 7.90504L41.3578 6.03096C40.9443 5.51405 40.4508 5.05497 39.8903 4.64909L38.1307 7.07891ZM41.678 6.8082L41.534 5.4642L38.551 5.7838L38.695 7.1278L41.678 6.8082ZM40.0425 7.124H45.6105V4.124H40.0425V7.124ZM44.1119 5.55851L43.7039 14.8945L46.7011 15.0255L47.1091 5.68949L44.1119 5.55851ZM43.7042 14.8879C43.6097 16.8509 43.1104 18.0689 42.43 18.7922C41.776 19.4873 40.7515 19.94 39.1065 19.94V22.94C41.3175 22.94 43.237 22.3127 44.615 20.8478C45.9666 19.4111 46.5873 17.3891 46.7008 15.0321L43.7042 14.8879ZM38.5065 7.028C38.0287 7.028 37.5403 7.14242 37.0952 7.41898C36.6547 7.69277 36.3402 8.07338 36.1226 8.479C35.7116 9.24542 35.5905 10.2029 35.5905 11.168H38.5905C38.5905 10.7908 38.6161 10.4978 38.6556 10.277C38.6957 10.0528 38.7437 9.93926 38.7664 9.897C38.7848 9.86262 38.7653 9.91323 38.6788 9.96701C38.6382 9.9922 38.5969 10.0091 38.5607 10.0187C38.5257 10.028 38.5054 10.028 38.5065 10.028V7.028ZM35.5905 11.168C35.5905 11.5632 35.6202 11.9536 35.6809 12.3379L38.6441 11.8701C38.6088 11.6464 38.5905 11.4128 38.5905 11.168H35.5905ZM35.6947 12.413C35.8167 12.9924 36.0924 13.5036 36.4412 13.9455L38.7958 12.0865C38.6646 11.9204 38.6363 11.8236 38.6303 11.795L35.6947 12.413ZM36.4711 13.9822C37.0612 14.6829 37.8743 14.972 38.6985 14.972V11.972C38.63 11.972 38.6281 11.961 38.664 11.9761C38.6814 11.9835 38.7019 11.9947 38.7225 12.0099C38.7429 12.025 38.7573 12.0397 38.7659 12.0498L36.4711 13.9822ZM38.6985 14.972C39.1821 14.972 39.6767 14.8516 40.123 14.561C40.5628 14.2746 40.8671 13.8809 41.0721 13.4708L38.3889 12.1292C38.3699 12.1671 38.3902 12.1094 38.486 12.047C38.5315 12.0174 38.5794 11.9967 38.6233 11.9845C38.6658 11.9727 38.6933 11.972 38.6985 11.972V14.972ZM41.0527 13.5083C41.4359 12.7931 41.5905 11.9924 41.5905 11.168H38.5905C38.5905 11.6236 38.5051 11.9109 38.4083 12.0917L41.0527 13.5083ZM41.5905 11.168C41.5905 10.187 41.4521 9.20182 40.9807 8.41626C40.4362 7.50862 39.5427 7.028 38.5065 7.028V10.028C38.5581 10.028 38.5303 10.0371 38.471 10.0042C38.4098 9.97021 38.3933 9.93489 38.4083 9.95974C38.4291 9.99441 38.4784 10.0962 38.5206 10.3072C38.5624 10.516 38.5905 10.7985 38.5905 11.168H41.5905ZM49.1218 15.68L48.1383 16.8125L48.1462 16.8194L48.1542 16.8262L49.1218 15.68ZM48.2338 7.784L49.4648 8.64128L49.4726 8.62974L48.2338 7.784ZM57.6898 6.392L56.7772 7.58241L56.7835 7.58724L56.7898 7.592L57.6898 6.392ZM57.9298 11.816L58.8491 13.0013L58.8524 12.9988L57.9298 11.816ZM52.7938 12.584L53.0788 11.1113L53.0705 11.1097L53.0621 11.1082L52.7938 12.584ZM52.5298 12.536L52.7981 11.0602L50.7589 10.6894L51.0441 12.7424L52.5298 12.536ZM53.2738 13.832L52.42 15.0653L52.4469 15.0839L52.4746 15.1013L53.2738 13.832ZM57.3058 13.352L58.4619 12.3963L57.4871 11.2171L56.3274 12.215L57.3058 13.352ZM58.7938 15.152L59.9412 16.1182L60.7473 15.1609L59.9499 14.1963L58.7938 15.152ZM57.8818 16.016L58.7641 17.2291L58.7817 17.2163L58.799 17.2029L57.8818 16.016ZM56.2018 16.832L56.7026 18.2459L56.7156 18.2413L56.7285 18.2365L56.2018 16.832ZM55.2418 8.384L54.2594 9.51753L54.2774 9.53314L54.2959 9.54817L55.2418 8.384ZM53.0098 8.648L51.9492 7.58734L51.9379 7.59862L51.9268 7.61014L53.0098 8.648ZM52.4578 10.016H50.9578V10.9819L51.8371 11.3815L52.4578 10.016ZM55.1458 9.968L55.9468 11.2362L55.9551 11.231L55.9633 11.2257L55.1458 9.968ZM53.6818 15.74C52.1822 15.74 51.0177 15.3174 50.0894 14.5338L48.1542 16.8262C49.6899 18.1226 51.5655 18.74 53.6818 18.74V15.74ZM50.1053 14.5475C49.2998 13.8479 48.7978 12.768 48.7978 11.048H45.7978C45.7978 13.392 46.5118 15.4001 48.1383 16.8125L50.1053 14.5475ZM48.7978 11.048C48.7978 10.0203 49.0445 9.24459 49.4647 8.64124L47.0029 6.92676C46.1751 8.11542 45.7978 9.51571 45.7978 11.048H48.7978ZM49.4726 8.62974C50.2751 7.45437 51.5211 6.788 53.5138 6.788V3.788C50.7385 3.788 48.4646 4.78563 46.995 6.93826L49.4726 8.62974ZM53.5138 6.788C55.1672 6.788 56.1823 7.12634 56.7772 7.58241L58.6025 5.20159C57.2773 4.18566 55.5084 3.788 53.5138 3.788V6.788ZM56.7898 7.592C57.3437 8.00743 57.6298 8.54749 57.6298 9.392H60.6298C60.6298 7.67651 59.9559 6.21657 58.5898 5.192L56.7898 7.592ZM57.6298 9.392C57.6298 9.90968 57.4525 10.2859 57.0073 10.6332L58.8524 12.9988C60.0071 12.0981 60.6298 10.8583 60.6298 9.392H57.6298ZM57.0106 10.6307C56.5969 10.9515 55.8286 11.228 54.4738 11.228V14.228C56.1591 14.228 57.6948 13.8965 58.849 13.0013L57.0106 10.6307ZM54.4738 11.228C53.9241 11.228 53.4621 11.1855 53.0788 11.1113L52.5088 14.0567C53.1175 14.1745 53.7755 14.228 54.4738 14.228V11.228ZM53.0621 11.1082L52.7981 11.0602L52.2615 14.0118L52.5255 14.0598L53.0621 11.1082ZM51.0441 12.7424C51.1723 13.6657 51.6061 14.5019 52.42 15.0653L54.1276 12.5987C54.1095 12.5862 54.0473 12.5583 54.0155 12.3296L51.0441 12.7424ZM52.4746 15.1013C53.1821 15.5468 53.981 15.74 54.8098 15.74V12.74C54.4546 12.74 54.2295 12.6612 54.073 12.5627L52.4746 15.1013ZM54.8098 15.74C56.1156 15.74 57.3026 15.3336 58.2842 14.489L56.3274 12.215C55.933 12.5544 55.456 12.74 54.8098 12.74V15.74ZM56.1497 14.3077L57.6377 16.1077L59.9499 14.1963L58.4619 12.3963L56.1497 14.3077ZM57.6464 14.1858C57.4667 14.3993 57.2421 14.6146 56.9646 14.8291L58.799 17.2029C59.2255 16.8734 59.6089 16.5127 59.9412 16.1182L57.6464 14.1858ZM56.9996 14.8029C56.8144 14.9375 56.4072 15.153 55.6751 15.4275L56.7285 18.2365C57.5324 17.935 58.2452 17.6065 58.7641 17.2291L56.9996 14.8029ZM55.701 15.4181C55.1119 15.6267 54.4434 15.74 53.6818 15.74V18.74C54.7442 18.74 55.7558 18.5813 56.7026 18.2459L55.701 15.4181ZM57.1258 9.176C57.1258 8.38845 56.7818 7.70251 56.1877 7.21983L54.2959 9.54817C54.2749 9.5311 54.2231 9.48106 54.1801 9.39241C54.1365 9.30244 54.1258 9.22181 54.1258 9.176H57.1258ZM56.2242 7.25047C55.6268 6.7327 54.8961 6.572 54.2338 6.572V9.572C54.3324 9.572 54.3703 9.58418 54.3663 9.58293C54.3633 9.58201 54.3498 9.57751 54.3294 9.56644C54.3086 9.55518 54.2843 9.53909 54.2594 9.51753L56.2242 7.25047ZM54.2338 6.572C53.3078 6.572 52.5382 6.99828 51.9492 7.58734L54.0705 9.70866C54.1643 9.61484 54.2236 9.58214 54.2425 9.57323C54.2557 9.56702 54.2483 9.572 54.2338 9.572V6.572ZM51.9268 7.61014C51.2934 8.27111 50.9578 9.09807 50.9578 10.016H53.9578C53.9578 9.87793 53.9902 9.79289 54.0928 9.68586L51.9268 7.61014ZM51.8371 11.3815C52.4511 11.6606 53.1402 11.756 53.8258 11.756V8.756C53.3914 8.756 53.1685 8.69135 53.0785 8.65045L51.8371 11.3815ZM53.8258 11.756C54.5302 11.756 55.2991 11.6453 55.9468 11.2362L54.3448 8.69977C54.3725 8.68228 54.3587 8.69869 54.2681 8.71848C54.1775 8.73825 54.0345 8.756 53.8258 8.756V11.756ZM55.9633 11.2257C56.6141 10.8026 57.1258 10.1073 57.1258 9.176H54.1258C54.1258 9.07239 54.1556 8.94782 54.223 8.83655C54.2843 8.73536 54.3428 8.70092 54.3283 8.71033L55.9633 11.2257ZM71.3211 2.624L70.8724 4.05535L70.8784 4.05721L71.3211 2.624ZM73.9851 3.896L75.3416 4.53616L75.8656 3.42571L74.8806 2.69265L73.9851 3.896ZM72.9771 6.032L72.4365 7.4312L73.7381 7.9341L74.3336 6.67216L72.9771 6.032ZM68.0571 12.872L66.9147 13.8442L66.9259 13.8572L66.9373 13.8701L68.0571 12.872ZM73.0011 13.4L74.3301 12.7046L73.6583 11.4207L72.352 12.0477L73.0011 13.4ZM74.0811 15.464L74.9676 16.674L76.0082 15.9116L75.4101 14.7686L74.0811 15.464ZM62.8011 15.272L61.7785 16.3694L61.7847 16.3752L62.8011 15.272ZM62.7771 4.04L63.7855 5.15051L63.7924 5.14415L62.7771 4.04ZM68.3211 3.62C69.0688 3.62 69.9161 3.75561 70.8724 4.05534L71.7697 1.19266C70.582 0.820393 69.4293 0.62 68.3211 0.62V3.62ZM70.8784 4.05721C71.8537 4.35839 72.5749 4.71639 73.0895 5.09935L74.8806 2.69265C74.0192 2.05161 72.9644 1.56161 71.7637 1.19079L70.8784 4.05721ZM72.6285 3.25584L71.6205 5.39184L74.3336 6.67216L75.3416 4.53616L72.6285 3.25584ZM73.5177 4.6328C72.6212 4.28645 71.6592 4.124 70.6491 4.124V7.124C71.3349 7.124 71.9249 7.23355 72.4365 7.4312L73.5177 4.6328ZM70.6491 4.124C69.1701 4.124 67.8061 4.56421 66.848 5.67764C65.9271 6.74793 65.5971 8.19537 65.5971 9.752H68.5971C68.5971 8.55663 68.859 7.94007 69.1221 7.63436C69.348 7.37179 69.76 7.124 70.6491 7.124V4.124ZM65.5971 9.752C65.5971 11.3127 65.9747 12.7396 66.9147 13.8442L69.1994 11.8998C68.8594 11.5004 68.5971 10.8473 68.5971 9.752H65.5971ZM66.9373 13.8701C67.852 14.8963 69.0318 15.476 70.4091 15.476V12.476C69.9623 12.476 69.5742 12.3197 69.1768 11.8739L66.9373 13.8701ZM70.4091 15.476C71.5512 15.476 72.6383 15.238 73.6502 14.7523L72.352 12.0477C71.7638 12.33 71.1229 12.476 70.4091 12.476V15.476ZM71.672 14.0954L72.752 16.1594L75.4101 14.7686L74.3301 12.7046L71.672 14.0954ZM73.1945 14.254C71.8658 15.2275 70.2577 15.74 68.2971 15.74V18.74C70.8164 18.74 73.0643 18.0685 74.9676 16.674L73.1945 14.254ZM68.2971 15.74C66.3705 15.74 64.9213 15.1859 63.8175 14.1688L61.7847 16.3752C63.5288 17.9821 65.7436 18.74 68.2971 18.74V15.74ZM63.8237 14.1746C62.7982 13.219 62.1891 11.784 62.1891 9.632H59.1891C59.1891 12.376 59.988 14.701 61.7785 16.3694L63.8237 14.1746ZM62.1891 9.632C62.1891 7.45231 62.7962 6.04873 63.7854 5.15049L61.7687 2.92951C59.9739 4.55927 59.1891 6.88369 59.1891 9.632H62.1891ZM63.7924 5.14415C64.8499 4.1717 66.3068 3.62 68.3211 3.62V0.62C65.7273 0.62 63.4882 1.3483 61.7617 2.93585L63.7924 5.14415ZM77.1264 15.824L76.1662 16.9763L76.1748 16.9835L76.1836 16.9906L77.1264 15.824ZM77.1264 6.728L78.0772 7.88822L78.0789 7.88681L77.1264 6.728ZM86.4144 6.728L85.4542 7.88033L85.4628 7.88754L85.4716 7.89461L86.4144 6.728ZM86.4144 15.824L87.3652 16.9842L87.3669 16.9828L86.4144 15.824ZM80.7744 8.552L82.189 9.05125L82.1934 9.03849L80.7744 8.552ZM80.7744 14L79.3555 14.4865L79.36 14.4992L80.7744 14ZM82.7904 14L84.205 14.4993L84.2094 14.4865L82.7904 14ZM82.7904 8.552L81.3715 9.03851L81.376 9.05123L82.7904 8.552ZM78.0867 14.6717C77.3948 14.0951 76.8984 13.0796 76.8984 11.264H73.8984C73.8984 13.6084 74.5541 15.6329 76.1662 16.9763L78.0867 14.6717ZM76.8984 11.264C76.8984 9.44641 77.3955 8.44683 78.0772 7.88822L76.1757 5.56778C74.5534 6.89717 73.8984 8.92159 73.8984 11.264H76.8984ZM78.0789 7.88681C78.9107 7.20314 80.0946 6.788 81.7824 6.788V3.788C79.5983 3.788 77.6782 4.33286 76.174 5.56919L78.0789 7.88681ZM81.7824 6.788C83.4715 6.788 84.642 7.20356 85.4542 7.88033L87.3747 5.57567C85.8828 4.33243 83.9654 3.788 81.7824 3.788V6.788ZM85.4716 7.89461C86.1654 8.45537 86.6664 9.45296 86.6664 11.264H89.6664C89.6664 8.91504 88.9995 6.88862 87.3573 5.56139L85.4716 7.89461ZM86.6664 11.264C86.6664 13.0731 86.166 14.0865 85.462 14.6652L87.3669 16.9828C88.9988 15.6415 89.6664 13.6149 89.6664 11.264H86.6664ZM85.4637 14.6638C84.6513 15.3295 83.4771 15.74 81.7824 15.74V18.74C83.9598 18.74 85.8736 18.2065 87.3652 16.9842L85.4637 14.6638ZM81.7824 15.74C80.089 15.74 78.9015 15.3299 78.0693 14.6574L76.1836 16.9906C77.6874 18.2061 79.6039 18.74 81.7824 18.74V15.74ZM79.36 8.05277C79.0763 8.85645 78.9864 9.98355 78.9864 11.264H81.9864C81.9864 10.0164 82.0886 9.33554 82.1889 9.05123L79.36 8.05277ZM78.9864 11.264C78.9864 12.5493 79.0774 13.6753 79.3555 14.4865L82.1934 13.5135C82.0875 13.2047 81.9864 12.5067 81.9864 11.264H78.9864ZM79.36 14.4992C79.5182 14.9477 79.7825 15.4183 80.2266 15.7779C80.6914 16.1541 81.2392 16.316 81.7824 16.316V13.316C81.8051 13.316 81.8562 13.3194 81.9238 13.342C81.9933 13.3652 82.0592 13.4016 82.1142 13.4461C82.2224 13.5337 82.2226 13.5963 82.1889 13.5008L79.36 14.4992ZM81.7824 16.316C82.3257 16.316 82.8735 16.1541 83.3382 15.7779C83.7824 15.4183 84.0466 14.9477 84.2049 14.4992L81.376 13.5008C81.3422 13.5963 81.3425 13.5337 81.4506 13.4461C81.5057 13.4016 81.5716 13.3652 81.6411 13.342C81.7087 13.3194 81.7598 13.316 81.7824 13.316V16.316ZM84.2094 14.4865C84.4875 13.6753 84.5784 12.5493 84.5784 11.264H81.5784C81.5784 12.5067 81.4774 13.2047 81.3715 13.5135L84.2094 14.4865ZM84.5784 11.264C84.5784 9.98355 84.4886 8.85645 84.2049 8.05277L81.376 9.05123C81.4763 9.33554 81.5784 10.0164 81.5784 11.264H84.5784ZM84.2094 8.06551C84.0547 7.61448 83.7956 7.1371 83.3547 6.76967C82.8903 6.38265 82.3367 6.212 81.7824 6.212V9.212C81.7553 9.212 81.6999 9.20776 81.6286 9.1833C81.5554 9.15819 81.4884 9.11956 81.4342 9.07433C81.3292 8.98689 81.3342 8.92952 81.3715 9.03849L84.2094 8.06551ZM81.7824 6.212C81.2281 6.212 80.6746 6.38265 80.2102 6.76967C79.7692 7.1371 79.5102 7.61448 79.3555 8.06551L82.1934 9.03849C82.2307 8.92952 82.2356 8.98689 82.1307 9.07433C82.0764 9.11956 82.0094 9.15819 81.9363 9.1833C81.865 9.20776 81.8096 9.212 81.7824 9.212V6.212ZM95.6792 5.96L96.1453 7.38574L96.1619 7.38031L96.1784 7.37449L95.6792 5.96ZM96.0872 5.816L97.5832 5.92515L97.7501 3.63842L95.588 4.40151L96.0872 5.816ZM95.2712 17V18.5H96.6657L96.7672 17.1092L95.2712 17ZM90.7352 17L89.2387 17.1028L89.3347 18.5H90.7352V17ZM89.9672 5.816L90.5285 4.42497L88.3066 3.52841L88.4707 5.91876L89.9672 5.816ZM90.9992 4.592L90.0068 5.71676L90.9992 4.592ZM90.9752 0.847999L91.9654 1.97475L91.9676 1.97276L90.9752 0.847999ZM95.0312 0.847999L96.0236 -0.276757V-0.276758L95.0312 0.847999ZM95.0312 4.592L96.0236 5.71676L95.0312 4.592ZM96.1784 7.37449L96.5864 7.23048L95.588 4.40151L95.18 4.54551L96.1784 7.37449ZM94.5912 5.70685L93.7752 16.8908L96.7672 17.1092L97.5832 5.92515L94.5912 5.70685ZM95.2712 15.5H90.7352V18.5H95.2712V15.5ZM92.2317 16.8972L91.4637 5.71324L88.4707 5.91876L89.2387 17.1028L92.2317 16.8972ZM89.4059 7.20703C90.5036 7.64996 91.6629 7.868 92.8712 7.868V4.868C92.0315 4.868 91.2548 4.71804 90.5285 4.42497L89.4059 7.20703ZM92.8712 7.868C94.0406 7.868 95.1376 7.71519 96.1453 7.38574L95.2131 4.53426C94.5568 4.74881 93.7818 4.868 92.8712 4.868V7.868ZM93.0152 3.812C92.5402 3.812 92.2327 3.67995 91.9916 3.46724L90.0068 5.71676C90.8537 6.46405 91.8902 6.812 93.0152 6.812V3.812ZM91.9916 3.46724C91.7912 3.29037 91.6832 3.08621 91.6832 2.72H88.6832C88.6832 3.88979 89.1192 4.93363 90.0068 5.71676L91.9916 3.46724ZM91.6832 2.72C91.6832 2.31179 91.801 2.11918 91.9654 1.97475L89.985 -0.278749C89.0934 0.504814 88.6832 1.56021 88.6832 2.72H91.6832ZM91.9676 1.97276C92.2087 1.76005 92.5162 1.628 92.9912 1.628V-1.372C91.8661 -1.372 90.8297 -1.02405 89.9827 -0.276758L91.9676 1.97276ZM92.9912 1.628C93.4906 1.628 93.8033 1.76504 94.0387 1.97276L96.0236 -0.276758C95.171 -1.02904 94.1238 -1.372 92.9912 -1.372V1.628ZM94.0387 1.97276C94.2392 2.14963 94.3472 2.35379 94.3472 2.72H97.3472C97.3472 1.55021 96.9112 0.506367 96.0236 -0.276757L94.0387 1.97276ZM94.3472 2.72C94.3472 3.08621 94.2392 3.29037 94.0387 3.46724L96.0236 5.71676C96.9112 4.93363 97.3472 3.88979 97.3472 2.72H94.3472ZM94.0387 3.46724C93.7977 3.67995 93.4902 3.812 93.0152 3.812V6.812C94.1402 6.812 95.1767 6.46405 96.0236 5.71676L94.0387 3.46724ZM109.969 6.704L108.825 7.67378L108.83 7.67938L108.835 7.68493L109.969 6.704ZM110.642 17V18.5H111.963L112.13 17.1891L110.642 17ZM106.441 17L104.947 17.1334L105.069 18.5H106.441V17ZM105.962 11.624L107.456 11.4906L107.455 11.4844L105.962 11.624ZM103.105 11.648L101.607 11.5925L101.606 11.6009L103.105 11.648ZM102.938 17V18.5H104.391L104.437 17.0471L102.938 17ZM98.5215 17L97.023 17.0664L97.0865 18.5H98.5215V17ZM98.0175 5.624V4.124H96.4496L96.519 5.69039L98.0175 5.624ZM103.441 5.624L104.94 5.69451L105.014 4.124H103.441V5.624ZM103.345 7.664L101.847 7.59349L104.687 8.33482L103.345 7.664ZM104.738 6.104L105.649 7.29555L105.655 7.29093L104.738 6.104ZM107.09 6.788C107.719 6.788 108.276 7.02633 108.825 7.67378L111.114 5.73422C110.063 4.49367 108.7 3.788 107.09 3.788V6.788ZM108.835 7.68493C109.367 8.30024 109.694 9.15829 109.694 10.4H112.694C112.694 8.6017 112.204 6.99576 111.104 5.72307L108.835 7.68493ZM109.694 10.4C109.694 11.8067 109.519 13.9309 109.153 16.8109L112.13 17.1891C112.5 14.2771 112.694 12.0013 112.694 10.4H109.694ZM110.642 15.5H106.441V18.5H110.642V15.5ZM107.936 16.8666L107.456 11.4906L104.467 11.7574L104.947 17.1334L107.936 16.8666ZM107.455 11.4844C107.368 10.5577 107.188 9.67662 106.812 8.98318C106.4 8.22335 105.657 7.556 104.57 7.556V10.556C104.463 10.556 104.336 10.5203 104.233 10.4483C104.145 10.3877 104.138 10.3457 104.175 10.4128C104.263 10.5754 104.395 10.9783 104.468 11.7636L107.455 11.4844ZM104.57 7.556C103.517 7.556 102.695 8.11394 102.213 8.96631C101.794 9.70886 101.642 10.6424 101.607 11.5925L104.604 11.7035C104.618 11.3334 104.654 11.0449 104.7 10.8264C104.747 10.6049 104.799 10.4889 104.826 10.4417C104.849 10.4009 104.834 10.4446 104.753 10.4945C104.666 10.5482 104.589 10.556 104.57 10.556V7.556ZM101.606 11.6009L101.438 16.9529L104.437 17.0471L104.605 11.6951L101.606 11.6009ZM102.938 15.5H98.5215V18.5H102.938V15.5ZM100.02 16.9336L99.516 5.55761L96.519 5.69039L97.023 17.0664L100.02 16.9336ZM98.0175 7.124H103.441V4.124H98.0175V7.124ZM101.943 5.55349L101.847 7.59349L104.844 7.73451L104.94 5.69451L101.943 5.55349ZM104.687 8.33482C104.67 8.36928 104.677 8.34819 104.748 8.25177C104.812 8.16517 104.906 8.04785 105.036 7.89619L102.759 5.94381C102.474 6.27621 102.176 6.6494 102.004 6.99318L104.687 8.33482ZM105.036 7.89619C105.275 7.61796 105.48 7.42458 105.649 7.29554L103.826 4.91246C103.451 5.19942 103.096 5.55004 102.759 5.94381L105.036 7.89619ZM105.655 7.29093C106.104 6.94338 106.568 6.788 107.09 6.788V3.788C105.883 3.788 104.779 4.17662 103.82 4.91707L105.655 7.29093ZM113.338 14.288L114.426 15.3211L114.439 15.3079L114.451 15.2944L113.338 14.288ZM116.074 14.288L114.962 15.2944L114.974 15.3079L114.987 15.3211L116.074 14.288ZM116.074 16.76L117.162 17.7931L117.175 17.7799L117.187 17.7664L116.074 16.76ZM113.338 16.76L112.226 17.7664L112.238 17.7799L112.251 17.7931L113.338 16.76ZM114.451 15.2944C114.429 15.319 114.41 15.324 114.427 15.3175C114.453 15.3079 114.537 15.284 114.706 15.284V12.284C113.826 12.284 112.903 12.5341 112.226 13.2816L114.451 15.2944ZM114.706 15.284C114.876 15.284 114.96 15.3079 114.986 15.3175C115.003 15.324 114.984 15.319 114.962 15.2944L117.187 13.2816C116.51 12.5341 115.587 12.284 114.706 12.284V15.284ZM114.987 15.3211C115.002 15.3366 115.006 15.3459 115.011 15.3577C115.016 15.3725 115.03 15.4182 115.03 15.512H118.03C118.03 14.683 117.764 13.8889 117.162 13.2549L114.987 15.3211ZM115.03 15.512C115.03 15.6742 114.992 15.7205 114.962 15.7536L117.187 17.7664C117.765 17.1275 118.03 16.3418 118.03 15.512H115.03ZM114.987 15.7269C115.014 15.6985 115.033 15.6958 115.008 15.7046C114.975 15.7163 114.883 15.74 114.706 15.74V18.74C115.566 18.74 116.481 18.51 117.162 17.7931L114.987 15.7269ZM114.706 15.74C114.53 15.74 114.438 15.7163 114.405 15.7046C114.38 15.6958 114.399 15.6985 114.426 15.7269L112.251 17.7931C112.932 18.51 113.847 18.74 114.706 18.74V15.74ZM114.451 15.7536C114.421 15.7205 114.382 15.6742 114.382 15.512H111.382C111.382 16.3418 111.648 17.1275 112.226 17.7664L114.451 15.7536ZM114.382 15.512C114.382 15.4182 114.397 15.3725 114.402 15.3577C114.407 15.3459 114.411 15.3366 114.426 15.3211L112.251 13.2549C111.649 13.8889 111.382 14.683 111.382 15.512H114.382ZM129.14 17L127.745 17.5523L128.12 18.5H129.14V17ZM128.18 14.576L129.574 14.0237L129.199 13.076H128.18V14.576ZM122.06 14.576V13.076H121.021L120.656 14.0478L122.06 14.576ZM121.148 17V18.5H122.186L122.552 17.5282L121.148 17ZM117.74 17L116.295 16.5971L115.764 18.5H117.74V17ZM121.796 2.456V0.956H120.657L120.351 2.05306L121.796 2.456ZM130.34 2.456L131.785 2.05306L131.479 0.956H130.34V2.456ZM134.396 17V18.5H136.371L135.841 16.5971L134.396 17ZM126.956 11.456V12.956H129.161L128.351 10.9049L126.956 11.456ZM125.06 6.656L126.455 6.10493L125.033 2.50448L123.658 6.12317L125.06 6.656ZM123.236 11.456L121.834 10.9232L121.061 12.956H123.236V11.456ZM130.534 16.4477L129.574 14.0237L126.785 15.1283L127.745 17.5523L130.534 16.4477ZM128.18 13.076H122.06V16.076H128.18V13.076ZM120.656 14.0478L119.744 16.4718L122.552 17.5282L123.464 15.1042L120.656 14.0478ZM121.148 15.5H117.74V18.5H121.148V15.5ZM119.185 17.4029L123.241 2.85894L120.351 2.05306L116.295 16.5971L119.185 17.4029ZM121.796 3.956H130.34V0.956H121.796V3.956ZM128.895 2.85894L132.951 17.4029L135.841 16.5971L131.785 2.05306L128.895 2.85894ZM134.396 15.5H129.14V18.5H134.396V15.5ZM128.351 10.9049L126.455 6.10493L123.665 7.20707L125.561 12.0071L128.351 10.9049ZM123.658 6.12317L121.834 10.9232L124.638 11.9888L126.462 7.18883L123.658 6.12317ZM123.236 12.956H126.956V9.956H123.236V12.956ZM141.076 5.96L141.542 7.38574L141.558 7.38031L141.575 7.37449L141.076 5.96ZM141.484 5.816L142.98 5.92515L143.147 3.63842L140.985 4.40151L141.484 5.816ZM140.668 17V18.5H142.062L142.164 17.1092L140.668 17ZM136.132 17L134.635 17.1028L134.731 18.5H136.132V17ZM135.364 5.816L135.925 4.42497L133.703 3.52841L133.867 5.91876L135.364 5.816ZM136.396 4.592L135.403 5.71676L136.396 4.592ZM136.372 0.847999L137.362 1.97475L137.364 1.97276L136.372 0.847999ZM140.428 0.847999L141.42 -0.276757V-0.276758L140.428 0.847999ZM140.428 4.592L141.42 5.71676L140.428 4.592ZM141.575 7.37449L141.983 7.23048L140.985 4.40151L140.577 4.54551L141.575 7.37449ZM139.988 5.70685L139.172 16.8908L142.164 17.1092L142.98 5.92515L139.988 5.70685ZM140.668 15.5H136.132V18.5H140.668V15.5ZM137.628 16.8972L136.86 5.71324L133.867 5.91876L134.635 17.1028L137.628 16.8972ZM134.802 7.20703C135.9 7.64996 137.059 7.868 138.268 7.868V4.868C137.428 4.868 136.651 4.71804 135.925 4.42497L134.802 7.20703ZM138.268 7.868C139.437 7.868 140.534 7.71519 141.542 7.38574L140.61 4.53426C139.953 4.74881 139.178 4.868 138.268 4.868V7.868ZM138.412 3.812C137.937 3.812 137.629 3.67995 137.388 3.46724L135.403 5.71676C136.25 6.46405 137.287 6.812 138.412 6.812V3.812ZM137.388 3.46724C137.188 3.29037 137.08 3.08621 137.08 2.72H134.08C134.08 3.88979 134.516 4.93363 135.403 5.71676L137.388 3.46724ZM137.08 2.72C137.08 2.31179 137.198 2.11918 137.362 1.97475L135.382 -0.278749C134.49 0.504814 134.08 1.56021 134.08 2.72H137.08ZM137.364 1.97276C137.605 1.76005 137.913 1.628 138.388 1.628V-1.372C137.263 -1.372 136.226 -1.02405 135.379 -0.276758L137.364 1.97276ZM138.388 1.628C138.887 1.628 139.2 1.76504 139.435 1.97276L141.42 -0.276758C140.568 -1.02904 139.52 -1.372 138.388 -1.372V1.628ZM139.435 1.97276C139.636 2.14963 139.744 2.35379 139.744 2.72H142.744C142.744 1.55021 142.308 0.506367 141.42 -0.276757L139.435 1.97276ZM139.744 2.72C139.744 3.08621 139.636 3.29037 139.435 3.46724L141.42 5.71676C142.308 4.93363 142.744 3.88979 142.744 2.72H139.744ZM139.435 3.46724C139.194 3.67995 138.887 3.812 138.412 3.812V6.812C139.537 6.812 140.573 6.46405 141.42 5.71676L139.435 3.46724Z" fill="#12122A" mask="url(#path-1-outside-1_753_1150)"/>
</svg>
