<svg width="40" height="40" viewBox="0 0 40 40" fill="none" xmlns="http://www.w3.org/2000/svg">
<g id="metamask-fox 1">
<path id="Vector" d="M34.4131 4.45697L21.9209 13.7351L24.231 8.26111L34.4131 4.45697Z" fill="#E2761B" stroke="#E2761B" stroke-width="0.125549" stroke-linecap="round" stroke-linejoin="round"/>
<g id="Group">
<path id="Vector_2" d="M5.57422 4.45709L17.9659 13.8231L15.7688 8.26124L5.57422 4.45709Z" fill="#E4761B" stroke="#E4761B" stroke-width="0.125549" stroke-linecap="round" stroke-linejoin="round"/>
<path id="Vector_3" d="M29.9179 25.9639L26.5908 31.0612L33.7095 33.0198L35.7559 26.0769L29.9179 25.9639Z" fill="#E4761B" stroke="#E4761B" stroke-width="0.125549" stroke-linecap="round" stroke-linejoin="round"/>
<path id="Vector_4" d="M4.25586 26.0768L6.28976 33.0197L13.4084 31.0611L10.0813 25.9638L4.25586 26.0768Z" fill="#E4761B" stroke="#E4761B" stroke-width="0.125549" stroke-linecap="round" stroke-linejoin="round"/>
<path id="Vector_5" d="M13.0071 17.3509L11.0234 20.3516L18.0919 20.6654L17.8408 13.0697L13.0071 17.3509Z" fill="#E4761B" stroke="#E4761B" stroke-width="0.125549" stroke-linecap="round" stroke-linejoin="round"/>
<path id="Vector_6" d="M26.9796 17.3506L22.0831 12.9815L21.9199 20.6651L28.9758 20.3512L26.9796 17.3506Z" fill="#E4761B" stroke="#E4761B" stroke-width="0.125549" stroke-linecap="round" stroke-linejoin="round"/>
<path id="Vector_7" d="M13.4092 31.0611L17.6527 28.9895L13.9867 26.127L13.4092 31.0611Z" fill="#E4761B" stroke="#E4761B" stroke-width="0.125549" stroke-linecap="round" stroke-linejoin="round"/>
<path id="Vector_8" d="M22.335 28.9895L26.5911 31.0611L26.001 26.127L22.335 28.9895Z" fill="#E4761B" stroke="#E4761B" stroke-width="0.125549" stroke-linecap="round" stroke-linejoin="round"/>
</g>
<g id="Group_2">
<path id="Vector_9" d="M26.5911 31.0608L22.335 28.9893L22.6739 31.7639L22.6363 32.9315L26.5911 31.0608Z" fill="#D7C1B3" stroke="#D7C1B3" stroke-width="0.125549" stroke-linecap="round" stroke-linejoin="round"/>
<path id="Vector_10" d="M13.4082 31.0608L17.363 32.9315L17.3379 31.7639L17.6518 28.9893L13.4082 31.0608Z" fill="#D7C1B3" stroke="#D7C1B3" stroke-width="0.125549" stroke-linecap="round" stroke-linejoin="round"/>
</g>
<path id="Vector_11" d="M17.4262 24.2939L13.8857 23.2519L16.3842 22.1094L17.4262 24.2939Z" fill="#233447" stroke="#233447" stroke-width="0.125549" stroke-linecap="round" stroke-linejoin="round"/>
<path id="Vector_12" d="M22.5615 24.2939L23.6036 22.1094L26.1146 23.2519L22.5615 24.2939Z" fill="#233447" stroke="#233447" stroke-width="0.125549" stroke-linecap="round" stroke-linejoin="round"/>
<g id="Group_3">
<path id="Vector_13" d="M13.4081 31.0609L14.0107 25.9636L10.0811 26.0766L13.4081 31.0609Z" fill="#CD6116" stroke="#CD6116" stroke-width="0.125549" stroke-linecap="round" stroke-linejoin="round"/>
<path id="Vector_14" d="M25.9883 25.9636L26.5909 31.0609L29.918 26.0766L25.9883 25.9636Z" fill="#CD6116" stroke="#CD6116" stroke-width="0.125549" stroke-linecap="round" stroke-linejoin="round"/>
<path id="Vector_15" d="M28.9758 20.3516L21.9199 20.6654L22.5728 24.2938L23.6148 22.1093L26.1258 23.2517L28.9758 20.3516Z" fill="#CD6116" stroke="#CD6116" stroke-width="0.125549" stroke-linecap="round" stroke-linejoin="round"/>
<path id="Vector_16" d="M13.885 23.2517L16.396 22.1093L17.4255 24.2938L18.0909 20.6654L11.0225 20.3516L13.885 23.2517Z" fill="#CD6116" stroke="#CD6116" stroke-width="0.125549" stroke-linecap="round" stroke-linejoin="round"/>
</g>
<g id="Group_4">
<path id="Vector_17" d="M11.0225 20.3516L13.9854 26.1268L13.885 23.2517L11.0225 20.3516Z" fill="#E4751F" stroke="#E4751F" stroke-width="0.125549" stroke-linecap="round" stroke-linejoin="round"/>
<path id="Vector_18" d="M26.1255 23.2517L26 26.1268L28.9755 20.3516L26.1255 23.2517Z" fill="#E4751F" stroke="#E4751F" stroke-width="0.125549" stroke-linecap="round" stroke-linejoin="round"/>
<path id="Vector_19" d="M18.0912 20.6655L17.4258 24.2938L18.2544 28.5751L18.4427 22.9379L18.0912 20.6655Z" fill="#E4751F" stroke="#E4751F" stroke-width="0.125549" stroke-linecap="round" stroke-linejoin="round"/>
<path id="Vector_20" d="M21.9191 20.6655L21.5801 22.9254L21.7307 28.5751L22.5719 24.2939L21.9191 20.6655Z" fill="#E4751F" stroke="#E4751F" stroke-width="0.125549" stroke-linecap="round" stroke-linejoin="round"/>
</g>
<path id="Vector_21" d="M22.5736 24.2938L21.7324 28.575L22.3351 28.9893L26.0011 26.1268L26.1266 23.2517L22.5736 24.2938Z" fill="#F6851B" stroke="#F6851B" stroke-width="0.125549" stroke-linecap="round" stroke-linejoin="round"/>
<path id="Vector_22" d="M13.8857 23.252L13.9862 26.127L17.6522 28.9896L18.2549 28.5752L17.4262 24.294L13.8857 23.252Z" fill="#F6851B" stroke="#F6851B" stroke-width="0.125549" stroke-linecap="round" stroke-linejoin="round"/>
<path id="Vector_23" d="M22.6361 32.9317L22.6737 31.7641L22.3599 31.4878H17.6267L17.3379 31.7641L17.363 32.9317L13.4082 31.061L14.7892 32.1909L17.589 34.1369H22.3975L25.2098 32.1909L26.5909 31.061L22.6361 32.9317Z" fill="#C0AD9E" stroke="#C0AD9E" stroke-width="0.125549" stroke-linecap="round" stroke-linejoin="round"/>
<path id="Vector_24" d="M22.3348 28.9895L21.7321 28.5752H18.2544L17.6518 28.9895L17.3379 31.7641L17.6267 31.4879H22.3599L22.6737 31.7641L22.3348 28.9895Z" fill="#161616" stroke="#161616" stroke-width="0.125549" stroke-linecap="round" stroke-linejoin="round"/>
<g id="Group_5">
<path id="Vector_25" d="M34.9411 14.3378L36.0083 9.21535L34.4138 4.45703L22.3359 13.4212L26.9813 17.3509L33.5475 19.2718L35.0039 17.5769L34.3761 17.125L35.3805 16.2084L34.6021 15.6058L35.6065 14.84L34.9411 14.3378Z" fill="#763D16" stroke="#763D16" stroke-width="0.125549" stroke-linecap="round" stroke-linejoin="round"/>
<path id="Vector_26" d="M3.99316 9.21535L5.06033 14.3378L4.38237 14.84L5.38676 15.6058L4.62091 16.2084L5.6253 17.125L4.99756 17.5769L6.44138 19.2718L13.0076 17.3509L17.6529 13.4212L5.57509 4.45703L3.99316 9.21535Z" fill="#763D16" stroke="#763D16" stroke-width="0.125549" stroke-linecap="round" stroke-linejoin="round"/>
</g>
<path id="Vector_27" d="M33.5475 19.2715L26.9812 17.3506L28.9775 20.3512L26.002 26.1265L29.9191 26.0763H35.7571L33.5475 19.2715Z" fill="#F6851B" stroke="#F6851B" stroke-width="0.125549" stroke-linecap="round" stroke-linejoin="round"/>
<path id="Vector_28" d="M13.0066 17.3511L6.44042 19.272L4.25586 26.0767H10.0813L13.9859 26.127L11.023 20.3517L13.0066 17.3511Z" fill="#F6851B" stroke="#F6851B" stroke-width="0.125549" stroke-linecap="round" stroke-linejoin="round"/>
<path id="Vector_29" d="M21.9205 20.6655L22.3348 13.4213L24.2431 8.26123H15.7686L17.6518 13.4213L18.0912 20.6655L18.2419 22.9505L18.2544 28.5751H21.7321L21.7573 22.9505L21.9205 20.6655Z" fill="#F6851B" stroke="#F6851B" stroke-width="0.125549" stroke-linecap="round" stroke-linejoin="round"/>
</g>
</svg>
