<svg width="32" height="33" viewBox="0 0 32 33" fill="none" xmlns="http://www.w3.org/2000/svg">
<path d="M27 5.1001H5C4.46957 5.1001 3.96086 5.31081 3.58579 5.68588C3.21071 6.06096 3 6.56966 3 7.1001V25.1001C3 25.6305 3.21071 26.1392 3.58579 26.5143C3.96086 26.8894 4.46957 27.1001 5 27.1001H27C27.5304 27.1001 28.0391 26.8894 28.4142 26.5143C28.7893 26.1392 29 25.6305 29 25.1001V7.1001C29 6.56966 28.7893 6.06096 28.4142 5.68588C28.0391 5.31081 27.5304 5.1001 27 5.1001ZM27 7.1001V19.9438L23.7412 16.6863C23.5555 16.5006 23.335 16.3532 23.0923 16.2527C22.8497 16.1521 22.5896 16.1004 22.3269 16.1004C22.0642 16.1004 21.8041 16.1521 21.5614 16.2527C21.3187 16.3532 21.0982 16.5006 20.9125 16.6863L18.4125 19.1863L12.9125 13.6863C12.5375 13.3116 12.029 13.101 11.4987 13.101C10.9685 13.101 10.46 13.3116 10.085 13.6863L5 18.7713V7.1001H27ZM5 21.6001L11.5 15.1001L21.5 25.1001H5V21.6001ZM27 25.1001H24.3288L19.8288 20.6001L22.3288 18.1001L27 22.7726V25.1001ZM18 12.6001C18 12.3034 18.088 12.0134 18.2528 11.7667C18.4176 11.5201 18.6519 11.3278 18.926 11.2143C19.2001 11.1007 19.5017 11.071 19.7926 11.1289C20.0836 11.1868 20.3509 11.3297 20.5607 11.5394C20.7704 11.7492 20.9133 12.0165 20.9712 12.3075C21.0291 12.5984 20.9993 12.9 20.8858 13.1741C20.7723 13.4482 20.58 13.6825 20.3334 13.8473C20.0867 14.0121 19.7967 14.1001 19.5 14.1001C19.1022 14.1001 18.7206 13.9421 18.4393 13.6608C18.158 13.3795 18 12.9979 18 12.6001Z" fill="#C1C0D8"/>
</svg>
