<svg xmlns="http://www.w3.org/2000/svg" width="16" height="16" viewBox="0 0 16 16" fill="none">
  <path d="M8.00058 3.01902C9.56658 1.61333 11.9866 1.66 13.495 3.17157C15.0035 4.68315 15.0553 7.09133 13.6523 8.662L7.99985 14.3233L2.3475 8.662C0.944617 7.09133 0.997057 4.67934 2.50482 3.17157C4.0143 1.6621 6.43004 1.61125 8.00058 3.01902ZM12.5513 4.1134C11.5519 3.11196 9.93832 3.07134 8.89125 4.01125L8.00118 4.81016L7.11065 4.01187C6.06057 3.07065 4.44996 3.11205 3.44763 4.11438C2.45447 5.10754 2.40461 6.6982 3.31987 7.7488L7.99985 12.4362L12.68 7.7488C13.5956 6.6978 13.5459 5.11017 12.5513 4.1134Z" fill="#8989AB"/>
</svg>