<svg width="29" height="28" viewBox="0 0 29 28" fill="none" xmlns="http://www.w3.org/2000/svg">
<path d="M21.9571 11.3897L8.14307 15.5377C7.89971 15.6116 7.64268 15.4721 7.56885 15.2288L5.50439 8.35728C5.43057 8.11392 5.57002 7.85689 5.81338 7.78306L19.6274 3.63501C19.8708 3.56118 20.1278 3.70063 20.2017 3.94399L22.2661 10.8155C22.3399 11.0588 22.2032 11.3159 21.9571 11.3897Z" fill="#FDF8CE"/>
<path d="M5.94165 9.81352L20.6405 5.39941L21.2995 7.59389L6.60063 12.008L5.94165 9.81352Z" fill="#DF8D36"/>
<path d="M22.419 23.5527H5.35376C4.2354 23.5527 3.33032 22.5765 3.33032 21.3702V9.73522C3.33032 8.52896 4.2354 7.55273 5.35376 7.55273H22.419C23.5374 7.55273 24.4424 8.52896 24.4424 9.73522V21.3702C24.4424 22.5736 23.5374 23.5527 22.419 23.5527Z" fill="url(#paint0_linear_781_2760)"/>
<rect x="19.0002" y="12" width="7" height="6" rx="1" fill="#FDF8CE"/>
<path d="M20.0002 15C20.0002 15.2652 20.1056 15.5196 20.2931 15.7071C20.4807 15.8946 20.735 16 21.0002 16C21.2655 16 21.5198 15.8946 21.7073 15.7071C21.8949 15.5196 22.0002 15.2652 22.0002 15C22.0002 14.7348 21.8949 14.4804 21.7073 14.2929C21.5198 14.1054 21.2655 14 21.0002 14C20.735 14 20.4807 14.1054 20.2931 14.2929C20.1056 14.4804 20.0002 14.7348 20.0002 15Z" fill="#DF8D36"/>
<defs>
<linearGradient id="paint0_linear_781_2760" x1="8.50024" y1="12.5" x2="10.5002" y2="28" gradientUnits="userSpaceOnUse">
<stop stop-color="#FFDA00"/>
<stop offset="1" stop-color="#D16A10"/>
</linearGradient>
</defs>
</svg>
