<svg xmlns="http://www.w3.org/2000/svg" width="24" height="24" viewBox="0 0 24 24" fill="none">
<path d="M12 22.0001C6.47715 22.0001 2 17.5229 2 12.0001C2 6.47721 6.47715 2.00006 12 2.00006C17.5228 2.00006 22 6.47721 22 12.0001C22 17.5229 17.5228 22.0001 12 22.0001ZM9.71002 19.6675C8.74743 17.626 8.15732 15.3743 8.02731 13.0001H4.06189C4.458 16.1766 6.71639 18.7748 9.71002 19.6675ZM10.0307 13.0001C10.1811 15.4389 10.8778 17.7298 12 19.7521C13.1222 17.7298 13.8189 15.4389 13.9693 13.0001H10.0307ZM19.9381 13.0001H15.9727C15.8427 15.3743 15.2526 17.626 14.29 19.6675C17.2836 18.7748 19.542 16.1766 19.9381 13.0001ZM4.06189 11.0001H8.02731C8.15732 8.62583 8.74743 6.37413 9.71002 4.33262C6.71639 5.22539 4.458 7.82356 4.06189 11.0001ZM10.0307 11.0001H13.9693C13.8189 8.56128 13.1222 6.27031 12 4.24805C10.8778 6.27031 10.1811 8.56128 10.0307 11.0001ZM14.29 4.33262C15.2526 6.37413 15.8427 8.62583 15.9727 11.0001H19.9381C19.542 7.82356 17.2836 5.22539 14.29 4.33262Z" fill="#12122A"/>
</svg>