<svg xmlns="http://www.w3.org/2000/svg" width="10" height="10" viewBox="0 0 10 10" fill="none">
  <g clip-path="url(#clip0_86_38904)">
    <path d="M0.833252 9.16667C0.833252 7.32571 2.32564 5.83334 4.16659 5.83334C6.00754 5.83334 7.49992 7.32571 7.49992 9.16667H6.66658C6.66658 7.78596 5.54729 6.66667 4.16659 6.66667C2.78587 6.66667 1.66659 7.78596 1.66659 9.16667H0.833252ZM4.16659 5.41667C2.78534 5.41667 1.66659 4.29792 1.66659 2.91667C1.66659 1.53542 2.78534 0.416672 4.16659 0.416672C5.54784 0.416672 6.66658 1.53542 6.66658 2.91667C6.66658 4.29792 5.54784 5.41667 4.16659 5.41667ZM4.16659 4.58334C5.08742 4.58334 5.83325 3.83751 5.83325 2.91667C5.83325 1.99584 5.08742 1.25001 4.16659 1.25001C3.24575 1.25001 2.49992 1.99584 2.49992 2.91667C2.49992 3.83751 3.24575 4.58334 4.16659 4.58334ZM7.61813 6.12617C8.77675 6.64838 9.58325 7.81334 9.58325 9.16667H8.74992C8.74992 8.15167 8.14504 7.27796 7.27608 6.8863L7.61813 6.12617ZM7.33167 1.42218C8.16425 1.76543 8.74992 2.58484 8.74992 3.54167C8.74992 4.73759 7.835 5.71884 6.66658 5.82401V4.98525C7.37354 4.88425 7.91658 4.27667 7.91658 3.54167C7.91658 2.9664 7.58392 2.46918 7.10034 2.23182L7.33167 1.42218Z" fill="white"/>
  </g>
  <defs>
    <clipPath id="clip0_86_38904">
      <rect width="10" height="10" fill="white"/>
    </clipPath>
  </defs>
</svg>